<mxfile host="Electron" agent="Mozilla/5.0 (Windows NT 10.0; Win64; x64) AppleWebKit/537.36 (KHTML, like Gecko) draw.io/24.7.5 Chrome/126.0.6478.183 Electron/31.3.0 Safari/537.36" version="24.7.5">
  <diagram name="Page-1" id="HwW77zyjJDSbphiPbGGQ">
    <mxGraphModel dx="1156" dy="1040" grid="1" gridSize="10" guides="1" tooltips="1" connect="1" arrows="1" fold="1" page="1" pageScale="1" pageWidth="850" pageHeight="1100" math="0" shadow="0">
      <root>
        <mxCell id="0" />
        <mxCell id="1" parent="0" />
        <mxCell id="Jtrj6787Ex4Qav3dFPR6-190" value="GFDL_1M" style="html=1;overflow=block;blockSpacing=1;whiteSpace=wrap;shape=document;boundedLbl=1;fontSize=16.7;spacing=3.8;strokeColor=#000000;fillOpacity=100;rounded=1;absoluteArcSize=1;arcSize=9;fillColor=#6db1ff;strokeWidth=NaN;lucidId=eg02LSF39Xs3;" vertex="1" parent="1">
          <mxGeometry x="1073" y="532" width="120" height="90" as="geometry" />
        </mxCell>
        <mxCell id="Jtrj6787Ex4Qav3dFPR6-191" value="" style="html=1;jettySize=18;whiteSpace=wrap;fontSize=13;strokeColor=#FFFFFF;strokeOpacity=100;strokeWidth=0.8;rounded=1;arcSize=12;edgeStyle=orthogonalEdgeStyle;startArrow=none;endArrow=block;endFill=1;exitX=0.5;exitY=0.924;exitPerimeter=0;entryX=0.5;entryY=-0.012;entryPerimeter=0;lucidId=Jg02.xa_NcuK;" edge="1" parent="1" source="Jtrj6787Ex4Qav3dFPR6-190" target="Jtrj6787Ex4Qav3dFPR6-192">
          <mxGeometry width="100" height="100" relative="1" as="geometry">
            <Array as="points" />
          </mxGeometry>
        </mxCell>
        <mxCell id="Jtrj6787Ex4Qav3dFPR6-192" value="Initialize" style="html=1;overflow=block;blockSpacing=1;whiteSpace=wrap;fontSize=16.7;spacing=3.8;strokeColor=#000000;fillOpacity=100;rounded=1;absoluteArcSize=1;arcSize=9;fillColor=#6db1ff;strokeWidth=NaN;lucidId=Jg029gBOsHpN;" vertex="1" parent="1">
          <mxGeometry x="1073" y="697" width="120" height="60" as="geometry" />
        </mxCell>
        <mxCell id="Jtrj6787Ex4Qav3dFPR6-193" value="" style="html=1;jettySize=18;whiteSpace=wrap;fontSize=13;strokeColor=#FFFFFF;strokeOpacity=100;strokeWidth=0.8;rounded=1;arcSize=12;edgeStyle=orthogonalEdgeStyle;startArrow=none;endArrow=block;endFill=1;exitX=0.5;exitY=0.924;exitPerimeter=0;entryX=0.5;entryY=-0.012;entryPerimeter=0;lucidId=Ng02n43RO8jR;" edge="1" parent="1" source="Jtrj6787Ex4Qav3dFPR6-190" target="Jtrj6787Ex4Qav3dFPR6-199">
          <mxGeometry width="100" height="100" relative="1" as="geometry">
            <Array as="points" />
          </mxGeometry>
        </mxCell>
        <mxCell id="Jtrj6787Ex4Qav3dFPR6-194" style="edgeStyle=orthogonalEdgeStyle;rounded=1;orthogonalLoop=1;jettySize=auto;html=1;exitX=0.5;exitY=1;exitDx=0;exitDy=0;entryX=0.5;entryY=0;entryDx=0;entryDy=0;curved=0;strokeWidth=1;strokeColor=#FFFFFF;" edge="1" parent="1" source="Jtrj6787Ex4Qav3dFPR6-199" target="Jtrj6787Ex4Qav3dFPR6-369">
          <mxGeometry relative="1" as="geometry">
            <Array as="points">
              <mxPoint x="1279" y="790" />
              <mxPoint x="1718" y="790" />
            </Array>
          </mxGeometry>
        </mxCell>
        <mxCell id="Jtrj6787Ex4Qav3dFPR6-195" style="edgeStyle=orthogonalEdgeStyle;rounded=1;orthogonalLoop=1;jettySize=auto;html=1;exitX=0.5;exitY=1;exitDx=0;exitDy=0;curved=0;strokeColor=#FFFFFF;" edge="1" parent="1" source="Jtrj6787Ex4Qav3dFPR6-199" target="Jtrj6787Ex4Qav3dFPR6-370">
          <mxGeometry relative="1" as="geometry">
            <Array as="points">
              <mxPoint x="1279" y="790" />
              <mxPoint x="1864" y="790" />
            </Array>
          </mxGeometry>
        </mxCell>
        <mxCell id="Jtrj6787Ex4Qav3dFPR6-196" style="edgeStyle=orthogonalEdgeStyle;rounded=1;orthogonalLoop=1;jettySize=auto;html=1;exitX=0.5;exitY=1;exitDx=0;exitDy=0;entryX=0.5;entryY=0;entryDx=0;entryDy=0;curved=0;strokeColor=#FFFFFF;" edge="1" parent="1" source="Jtrj6787Ex4Qav3dFPR6-199" target="Jtrj6787Ex4Qav3dFPR6-371">
          <mxGeometry relative="1" as="geometry">
            <Array as="points">
              <mxPoint x="1279" y="790" />
              <mxPoint x="850" y="790" />
            </Array>
          </mxGeometry>
        </mxCell>
        <mxCell id="Jtrj6787Ex4Qav3dFPR6-197" style="edgeStyle=orthogonalEdgeStyle;rounded=1;orthogonalLoop=1;jettySize=auto;html=1;exitX=0.5;exitY=1;exitDx=0;exitDy=0;entryX=0.5;entryY=0;entryDx=0;entryDy=0;curved=0;strokeColor=#FFFFFF;" edge="1" parent="1" source="Jtrj6787Ex4Qav3dFPR6-199" target="Jtrj6787Ex4Qav3dFPR6-373">
          <mxGeometry relative="1" as="geometry">
            <Array as="points">
              <mxPoint x="1279" y="790" />
              <mxPoint x="710" y="790" />
            </Array>
          </mxGeometry>
        </mxCell>
        <mxCell id="Jtrj6787Ex4Qav3dFPR6-198" style="edgeStyle=orthogonalEdgeStyle;rounded=1;orthogonalLoop=1;jettySize=auto;html=1;exitX=0.5;exitY=1;exitDx=0;exitDy=0;entryX=0.5;entryY=0;entryDx=0;entryDy=0;curved=0;strokeColor=#FFFFFF;" edge="1" parent="1" source="Jtrj6787Ex4Qav3dFPR6-199" target="Jtrj6787Ex4Qav3dFPR6-376">
          <mxGeometry relative="1" as="geometry">
            <Array as="points">
              <mxPoint x="1279" y="790" />
              <mxPoint x="2009" y="790" />
            </Array>
          </mxGeometry>
        </mxCell>
        <mxCell id="Jtrj6787Ex4Qav3dFPR6-199" value="Run" style="html=1;overflow=block;blockSpacing=1;whiteSpace=wrap;fontSize=16.7;spacing=3.8;strokeColor=#000000;fillOpacity=100;rounded=1;absoluteArcSize=1;arcSize=9;fillColor=#6db1ff;strokeWidth=NaN;lucidId=Ng02V_ooPtCS;" vertex="1" parent="1">
          <mxGeometry x="1219" y="697" width="120" height="60" as="geometry" />
        </mxCell>
        <mxCell id="Jtrj6787Ex4Qav3dFPR6-200" value="" style="html=1;jettySize=18;whiteSpace=wrap;fontSize=13;strokeColor=#FFFFFF;strokeOpacity=100;strokeWidth=0.8;rounded=1;arcSize=12;edgeStyle=orthogonalEdgeStyle;startArrow=none;endArrow=block;endFill=1;exitX=0.5;exitY=0.924;exitPerimeter=0;entryX=0.5;entryY=-0.012;entryPerimeter=0;lucidId=Ng02X~2ebf34;" edge="1" parent="1" source="Jtrj6787Ex4Qav3dFPR6-190" target="Jtrj6787Ex4Qav3dFPR6-201">
          <mxGeometry width="100" height="100" relative="1" as="geometry">
            <Array as="points" />
          </mxGeometry>
        </mxCell>
        <mxCell id="Jtrj6787Ex4Qav3dFPR6-201" value="Setup" style="html=1;overflow=block;blockSpacing=1;whiteSpace=wrap;fontSize=16.7;spacing=3.8;strokeColor=#000000;fillOpacity=100;rounded=1;absoluteArcSize=1;arcSize=9;fillColor=#6db1ff;strokeWidth=NaN;lucidId=Ng02B3icvApx;" vertex="1" parent="1">
          <mxGeometry x="928" y="697" width="120" height="60" as="geometry" />
        </mxCell>
        <mxCell id="Jtrj6787Ex4Qav3dFPR6-202" value="" style="html=1;jettySize=18;whiteSpace=wrap;fontSize=13;strokeColor=#FFFFFF;strokeOpacity=100;strokeWidth=0.8;rounded=1;arcSize=12;edgeStyle=orthogonalEdgeStyle;startArrow=none;endArrow=block;endFill=1;exitX=0.5;exitY=1.013;exitPerimeter=0;entryX=0.5;entryY=-0.012;entryPerimeter=0;lucidId=Ii02ADKihDkn;" edge="1" parent="1" source="Jtrj6787Ex4Qav3dFPR6-199" target="Jtrj6787Ex4Qav3dFPR6-203">
          <mxGeometry width="100" height="100" relative="1" as="geometry">
            <Array as="points" />
          </mxGeometry>
        </mxCell>
        <mxCell id="Jtrj6787Ex4Qav3dFPR6-203" value="FIND_EIS" style="html=1;overflow=block;blockSpacing=1;whiteSpace=wrap;fontSize=16.7;spacing=3.8;strokeColor=#FFFFFF;fillOpacity=100;rounded=1;absoluteArcSize=1;arcSize=9;fillColor=#000000;strokeWidth=NaN;lucidId=Ii0254E6V297;" vertex="1" parent="1">
          <mxGeometry x="1219" y="817" width="120" height="60" as="geometry" />
        </mxCell>
        <mxCell id="Jtrj6787Ex4Qav3dFPR6-204" value="" style="html=1;jettySize=18;whiteSpace=wrap;fontSize=13;strokeColor=#FFFFFF;strokeOpacity=100;strokeWidth=0.8;rounded=1;arcSize=12;edgeStyle=orthogonalEdgeStyle;startArrow=none;endArrow=block;endFill=1;exitX=0.5;exitY=1.013;exitPerimeter=0;entryX=0.5;entryY=-0.012;entryPerimeter=0;lucidId=uj02sE33P2-_;" edge="1" parent="1" source="Jtrj6787Ex4Qav3dFPR6-199" target="Jtrj6787Ex4Qav3dFPR6-205">
          <mxGeometry width="100" height="100" relative="1" as="geometry">
            <Array as="points">
              <mxPoint x="1279" y="790" />
              <mxPoint x="1420" y="790" />
            </Array>
          </mxGeometry>
        </mxCell>
        <mxCell id="Jtrj6787Ex4Qav3dFPR6-205" value="evap_subl_pdf loop" style="html=1;overflow=block;blockSpacing=1;whiteSpace=wrap;fontSize=16.7;spacing=3.8;strokeColor=#FFFFFF;fillOpacity=100;rounded=1;absoluteArcSize=1;arcSize=9;fillColor=#000000;strokeWidth=NaN;lucidId=uj02P1HUFX.H;" vertex="1" parent="1">
          <mxGeometry x="1360" y="817" width="120" height="60" as="geometry" />
        </mxCell>
        <mxCell id="Jtrj6787Ex4Qav3dFPR6-206" value="" style="html=1;jettySize=18;whiteSpace=wrap;fontSize=13;strokeColor=#FFFFFF;strokeOpacity=100;strokeWidth=0.8;rounded=1;arcSize=12;edgeStyle=orthogonalEdgeStyle;startArrow=none;endArrow=block;endFill=1;exitX=0.5;exitY=1.013;exitPerimeter=0;entryX=0.5;entryY=-0.012;entryPerimeter=0;lucidId=wj02N~E8MMSu;" edge="1" parent="1" source="Jtrj6787Ex4Qav3dFPR6-199" target="Jtrj6787Ex4Qav3dFPR6-211">
          <mxGeometry width="100" height="100" relative="1" as="geometry">
            <Array as="points">
              <mxPoint x="1279" y="790" />
              <mxPoint x="1131" y="790" />
            </Array>
          </mxGeometry>
        </mxCell>
        <mxCell id="Jtrj6787Ex4Qav3dFPR6-207" value="" style="html=1;jettySize=18;whiteSpace=wrap;fontSize=13;strokeColor=#FFFFFF;strokeOpacity=100;strokeWidth=0.8;rounded=1;arcSize=12;edgeStyle=orthogonalEdgeStyle;startArrow=none;endArrow=block;endFill=1;exitX=0.5;exitY=1.013;exitPerimeter=0;entryX=0.5;entryY=-0.011;entryPerimeter=0;lucidId=Aj029Usguq7S;" edge="1" parent="1" source="Jtrj6787Ex4Qav3dFPR6-199" target="Jtrj6787Ex4Qav3dFPR6-208">
          <mxGeometry width="100" height="100" relative="1" as="geometry">
            <Array as="points">
              <mxPoint x="1279" y="790" />
              <mxPoint x="1570" y="790" />
            </Array>
          </mxGeometry>
        </mxCell>
        <mxCell id="Jtrj6787Ex4Qav3dFPR6-208" value="gfdl_cloud_ microphys_ driver" style="html=1;overflow=block;blockSpacing=1;whiteSpace=wrap;fontSize=16.7;spacing=3.8;strokeColor=#FFFFFF;fillOpacity=100;rounded=1;absoluteArcSize=1;arcSize=9;fillColor=#000000;strokeWidth=NaN;lucidId=Aj02~i0DirBL;" vertex="1" parent="1">
          <mxGeometry x="1510" y="813" width="120" height="68" as="geometry" />
        </mxCell>
        <mxCell id="Jtrj6787Ex4Qav3dFPR6-209" value="" style="html=1;jettySize=18;whiteSpace=wrap;fontSize=13;strokeColor=#FFFFFF;strokeOpacity=100;strokeWidth=0.8;rounded=1;arcSize=12;edgeStyle=orthogonalEdgeStyle;startArrow=none;endArrow=block;endFill=1;exitX=0.5;exitY=1.013;exitPerimeter=0;entryX=0.5;entryY=-0.013;entryPerimeter=0;lucidId=1j02QpV3lsdK;" edge="1" parent="1" source="Jtrj6787Ex4Qav3dFPR6-199" target="Jtrj6787Ex4Qav3dFPR6-210">
          <mxGeometry width="100" height="100" relative="1" as="geometry">
            <Array as="points">
              <mxPoint x="1279" y="790" />
              <mxPoint x="988" y="790" />
            </Array>
          </mxGeometry>
        </mxCell>
        <mxCell id="Jtrj6787Ex4Qav3dFPR6-210" value="FIND_KLCL" style="html=1;overflow=block;blockSpacing=1;whiteSpace=wrap;fontSize=16.7;spacing=3.8;strokeColor=#FFFFFF;fillOpacity=100;rounded=1;absoluteArcSize=1;arcSize=9;fillColor=#000000;strokeWidth=NaN;lucidId=1j02MYspGTrr;" vertex="1" parent="1">
          <mxGeometry x="928" y="817" width="120" height="60" as="geometry" />
        </mxCell>
        <mxCell id="Jtrj6787Ex4Qav3dFPR6-211" value="GEOS_QSAT" style="html=1;overflow=block;blockSpacing=1;whiteSpace=wrap;fontSize=16.7;spacing=3.8;strokeColor=#FFFFFF;fillOpacity=100;rounded=1;absoluteArcSize=1;arcSize=9;fillColor=#000000;strokeWidth=NaN;lucidId=5k02fF9KZG4Q;" vertex="1" parent="1">
          <mxGeometry x="1071" y="817" width="120" height="60" as="geometry" />
        </mxCell>
        <mxCell id="Jtrj6787Ex4Qav3dFPR6-212" value="meltfrz" style="html=1;overflow=block;blockSpacing=1;whiteSpace=wrap;fontSize=16.7;spacing=3.8;strokeColor=#FFFFFF;fillOpacity=100;rounded=1;absoluteArcSize=1;arcSize=9;fillColor=#FFD966;strokeWidth=NaN;lucidId=5k02tYsbmSjn;fontColor=#000000;" vertex="1" parent="1">
          <mxGeometry x="1510" y="1057" width="120" height="60" as="geometry" />
        </mxCell>
        <mxCell id="Jtrj6787Ex4Qav3dFPR6-213" value="evap3" style="html=1;overflow=block;blockSpacing=1;whiteSpace=wrap;fontSize=16.7;spacing=3.8;strokeColor=#FFFFFF;fillOpacity=100;rounded=1;absoluteArcSize=1;arcSize=9;fillColor=#FFD966;strokeWidth=NaN;lucidId=5k02Cyuy4Dzv;fontColor=#000000;" vertex="1" parent="1">
          <mxGeometry x="1658" y="1057" width="120" height="60" as="geometry" />
        </mxCell>
        <mxCell id="Jtrj6787Ex4Qav3dFPR6-214" value="hystpdf" style="html=1;overflow=block;blockSpacing=1;whiteSpace=wrap;fontSize=16.7;spacing=3.8;strokeColor=#FFFFFF;rounded=1;absoluteArcSize=1;arcSize=9;fillColor=#000000;strokeWidth=NaN;lucidId=5k02jr55drX5;fontColor=#FFFFFF;" vertex="1" parent="1">
          <mxGeometry x="1360" y="1057" width="120" height="60" as="geometry" />
        </mxCell>
        <mxCell id="Jtrj6787Ex4Qav3dFPR6-215" value="subl3" style="html=1;overflow=block;blockSpacing=1;whiteSpace=wrap;fontSize=16.7;spacing=3.8;strokeColor=#FFFFFF;fillOpacity=100;rounded=1;absoluteArcSize=1;arcSize=9;fillColor=#FFD966;strokeWidth=NaN;lucidId=5k02ED8D4khW;fontColor=#000000;" vertex="1" parent="1">
          <mxGeometry x="1804" y="1057" width="120" height="60" as="geometry" />
        </mxCell>
        <mxCell id="Jtrj6787Ex4Qav3dFPR6-216" value="initial calcs" style="html=1;overflow=block;blockSpacing=1;whiteSpace=wrap;fontSize=16.7;spacing=3.8;strokeColor=#FFFFFF;fillOpacity=100;rounded=1;absoluteArcSize=1;arcSize=9;fillColor=#54c45e;strokeWidth=NaN;lucidId=5k02CfG~9a0H;fontColor=#000000;" vertex="1" parent="1">
          <mxGeometry x="1220" y="1057" width="120" height="60" as="geometry" />
        </mxCell>
        <mxCell id="Jtrj6787Ex4Qav3dFPR6-217" value="fix_up_clouds" style="html=1;overflow=block;blockSpacing=1;whiteSpace=wrap;fontSize=16.7;spacing=3.8;strokeColor=#FFFFFF;fillOpacity=100;rounded=1;absoluteArcSize=1;arcSize=9;fillColor=#54c45e;strokeWidth=NaN;lucidId=5k02Fdu-~SiX;fontColor=#000000;" vertex="1" parent="1">
          <mxGeometry x="1949" y="1057" width="120" height="60" as="geometry" />
        </mxCell>
        <mxCell id="Jtrj6787Ex4Qav3dFPR6-218" value="" style="html=1;jettySize=18;whiteSpace=wrap;fontSize=13;strokeColor=#FFFFFF;strokeOpacity=100;strokeWidth=0.8;rounded=1;arcSize=12;edgeStyle=orthogonalEdgeStyle;startArrow=none;endArrow=block;endFill=1;exitX=0.5;exitY=1.013;exitPerimeter=0;entryX=0.5;entryY=-0.012;entryPerimeter=0;lucidId=5k02dXRQQpd.;" edge="1" parent="1" source="Jtrj6787Ex4Qav3dFPR6-212" target="Jtrj6787Ex4Qav3dFPR6-219">
          <mxGeometry width="100" height="100" relative="1" as="geometry">
            <Array as="points" />
          </mxGeometry>
        </mxCell>
        <mxCell id="Jtrj6787Ex4Qav3dFPR6-219" value="ice_fraction" style="html=1;overflow=block;blockSpacing=1;whiteSpace=wrap;fontSize=16.7;spacing=3.8;strokeColor=#FFFFFF;fillOpacity=100;rounded=1;absoluteArcSize=1;arcSize=9;fillColor=#FFD966;strokeWidth=NaN;lucidId=5k02an_R8BPv;fontColor=#000000;" vertex="1" parent="1">
          <mxGeometry x="1510" y="1177" width="120" height="60" as="geometry" />
        </mxCell>
        <mxCell id="Jtrj6787Ex4Qav3dFPR6-220" value="" style="html=1;jettySize=18;whiteSpace=wrap;fontSize=13;strokeColor=#FFFFFF;strokeOpacity=100;strokeWidth=0.8;rounded=1;arcSize=12;edgeStyle=orthogonalEdgeStyle;startArrow=none;endArrow=block;endFill=1;exitX=0.5;exitY=1.013;exitPerimeter=0;entryX=0.5;entryY=-0.012;entryPerimeter=0;lucidId=5k02YQ-Bv61S;" edge="1" parent="1" source="Jtrj6787Ex4Qav3dFPR6-213" target="Jtrj6787Ex4Qav3dFPR6-221">
          <mxGeometry width="100" height="100" relative="1" as="geometry">
            <Array as="points" />
          </mxGeometry>
        </mxCell>
        <mxCell id="Jtrj6787Ex4Qav3dFPR6-221" value="LDRADIUS4" style="html=1;overflow=block;blockSpacing=1;whiteSpace=wrap;fontSize=16.7;spacing=3.8;strokeColor=#FFFFFF;fillOpacity=100;rounded=1;absoluteArcSize=1;arcSize=9;fillColor=#FFD966;strokeWidth=NaN;lucidId=5k02WYvO.Gfo;fontColor=#000000;" vertex="1" parent="1">
          <mxGeometry x="1658" y="1177" width="120" height="60" as="geometry" />
        </mxCell>
        <mxCell id="Jtrj6787Ex4Qav3dFPR6-222" value="" style="html=1;jettySize=18;whiteSpace=wrap;fontSize=13;strokeColor=#FFFFFF;strokeOpacity=100;strokeWidth=0.8;rounded=1;arcSize=12;edgeStyle=orthogonalEdgeStyle;startArrow=none;endArrow=block;endFill=1;exitX=0.5;exitY=1.013;exitPerimeter=0;entryX=0.5;entryY=-0.012;entryPerimeter=0;lucidId=5k02iSYWRtz8;" edge="1" parent="1" source="Jtrj6787Ex4Qav3dFPR6-215" target="Jtrj6787Ex4Qav3dFPR6-223">
          <mxGeometry width="100" height="100" relative="1" as="geometry">
            <Array as="points" />
          </mxGeometry>
        </mxCell>
        <mxCell id="Jtrj6787Ex4Qav3dFPR6-223" value="LDRADIUS4" style="html=1;overflow=block;blockSpacing=1;whiteSpace=wrap;fontSize=16.7;spacing=3.8;strokeColor=#FFFFFF;fillOpacity=100;rounded=1;absoluteArcSize=1;arcSize=9;fillColor=#FFD966;strokeWidth=NaN;lucidId=5k02_aEXCoii;fontColor=#000000;" vertex="1" parent="1">
          <mxGeometry x="1804" y="1177" width="120" height="60" as="geometry" />
        </mxCell>
        <mxCell id="Jtrj6787Ex4Qav3dFPR6-224" value="" style="html=1;jettySize=18;whiteSpace=wrap;fontSize=13;strokeColor=#FFFFFF;strokeOpacity=100;strokeWidth=0.8;rounded=1;arcSize=12;edgeStyle=orthogonalEdgeStyle;startArrow=none;endArrow=block;endFill=1;exitX=0.5;exitY=1.013;exitPerimeter=0;entryX=0.5;entryY=-0.012;entryPerimeter=0;lucidId=5k02~AVolBvM;" edge="1" parent="1" source="Jtrj6787Ex4Qav3dFPR6-214" target="Jtrj6787Ex4Qav3dFPR6-225">
          <mxGeometry width="100" height="100" relative="1" as="geometry">
            <Array as="points">
              <mxPoint x="1420" y="1280" />
              <mxPoint x="1282" y="1280" />
            </Array>
          </mxGeometry>
        </mxCell>
        <mxCell id="Jtrj6787Ex4Qav3dFPR6-225" value="GEOS_DQSAT" style="html=1;overflow=block;blockSpacing=1;whiteSpace=wrap;fontSize=16.7;spacing=3.8;strokeColor=#FFFFFF;rounded=1;absoluteArcSize=1;arcSize=9;fillColor=#000000;strokeWidth=NaN;lucidId=5k02DPYu7fyJ;" vertex="1" parent="1">
          <mxGeometry x="1222" y="1303" width="120" height="60" as="geometry" />
        </mxCell>
        <mxCell id="Jtrj6787Ex4Qav3dFPR6-226" value="" style="html=1;jettySize=18;whiteSpace=wrap;fontSize=13;strokeColor=#FFFFFF;strokeOpacity=100;strokeWidth=0.8;rounded=1;arcSize=12;edgeStyle=orthogonalEdgeStyle;startArrow=none;endArrow=block;endFill=1;exitX=0.5;exitY=1.013;exitPerimeter=0;entryX=0.5;entryY=-0.012;entryPerimeter=0;lucidId=5k02hRzV-k4C;" edge="1" parent="1" source="Jtrj6787Ex4Qav3dFPR6-265" target="Jtrj6787Ex4Qav3dFPR6-227">
          <mxGeometry width="100" height="100" relative="1" as="geometry">
            <Array as="points" />
          </mxGeometry>
        </mxCell>
        <mxCell id="Jtrj6787Ex4Qav3dFPR6-227" value="MAPL_EQsat" style="html=1;overflow=block;blockSpacing=1;whiteSpace=wrap;fontSize=16.7;spacing=3.8;strokeColor=#FFFFFF;rounded=1;absoluteArcSize=1;arcSize=9;fillColor=#000000;strokeWidth=NaN;lucidId=5k02W6R8VrFt;" vertex="1" parent="1">
          <mxGeometry x="1510" y="1423" width="120" height="60" as="geometry" />
        </mxCell>
        <mxCell id="Jtrj6787Ex4Qav3dFPR6-228" value="" style="html=1;jettySize=18;whiteSpace=wrap;fontSize=13;strokeColor=#FFFFFF;strokeOpacity=100;strokeWidth=0.8;rounded=1;arcSize=12;edgeStyle=orthogonalEdgeStyle;startArrow=none;endArrow=block;endFill=1;exitX=0.5;exitY=1.013;exitPerimeter=0;entryX=0.5;entryY=-0.012;entryPerimeter=0;lucidId=5k023D5o3P~j;" edge="1" parent="1" source="Jtrj6787Ex4Qav3dFPR6-227" target="Jtrj6787Ex4Qav3dFPR6-229">
          <mxGeometry width="100" height="100" relative="1" as="geometry">
            <Array as="points" />
          </mxGeometry>
        </mxCell>
        <mxCell id="Jtrj6787Ex4Qav3dFPR6-229" value="QSAT0" style="html=1;overflow=block;blockSpacing=1;whiteSpace=wrap;fontSize=16.7;spacing=3.8;strokeColor=#FFFFFF;rounded=1;absoluteArcSize=1;arcSize=9;fillColor=#000000;strokeWidth=NaN;lucidId=5k02CSaogQaf;" vertex="1" parent="1">
          <mxGeometry x="1360" y="1543" width="120" height="60" as="geometry" />
        </mxCell>
        <mxCell id="Jtrj6787Ex4Qav3dFPR6-230" value="" style="html=1;jettySize=18;whiteSpace=wrap;fontSize=13;strokeColor=#FFFFFF;strokeOpacity=100;strokeWidth=0.8;rounded=1;arcSize=12;edgeStyle=orthogonalEdgeStyle;startArrow=none;endArrow=block;endFill=1;exitX=0.5;exitY=1.013;exitPerimeter=0;entryX=0.5;entryY=-0.012;entryPerimeter=0;lucidId=5k02xw9n4bhw;" edge="1" parent="1" source="Jtrj6787Ex4Qav3dFPR6-227" target="Jtrj6787Ex4Qav3dFPR6-231">
          <mxGeometry width="100" height="100" relative="1" as="geometry">
            <Array as="points" />
          </mxGeometry>
        </mxCell>
        <mxCell id="Jtrj6787Ex4Qav3dFPR6-231" value="QSATD0" style="html=1;overflow=block;blockSpacing=1;whiteSpace=wrap;fontSize=16.7;spacing=3.8;strokeColor=#FFFFFF;rounded=1;absoluteArcSize=1;arcSize=9;fillColor=#000000;strokeWidth=NaN;lucidId=5k02NoKgwg.k;" vertex="1" parent="1">
          <mxGeometry x="1510" y="1543" width="120" height="60" as="geometry" />
        </mxCell>
        <mxCell id="Jtrj6787Ex4Qav3dFPR6-232" value="" style="html=1;jettySize=18;whiteSpace=wrap;fontSize=13;strokeColor=#FFFFFF;strokeOpacity=100;strokeWidth=0.8;rounded=1;arcSize=12;edgeStyle=orthogonalEdgeStyle;startArrow=none;endArrow=block;endFill=1;exitX=0.5;exitY=1.013;exitPerimeter=0;entryX=0.5;entryY=0.008;entryPerimeter=0;lucidId=5k02O6DVAhNR;" edge="1" parent="1" source="Jtrj6787Ex4Qav3dFPR6-229" target="Jtrj6787Ex4Qav3dFPR6-233">
          <mxGeometry width="100" height="100" relative="1" as="geometry">
            <Array as="points" />
          </mxGeometry>
        </mxCell>
        <mxCell id="Jtrj6787Ex4Qav3dFPR6-233" value="qsatlqu.H" style="html=1;overflow=block;blockSpacing=1;whiteSpace=wrap;rhombus;fontSize=16.7;spacing=3.8;strokeColor=#FFFFFF;rounded=1;absoluteArcSize=1;arcSize=9;fillColor=#000000;strokeWidth=NaN;lucidId=5k02YqkvokC9;" vertex="1" parent="1">
          <mxGeometry x="1289" y="1648" width="120" height="90" as="geometry" />
        </mxCell>
        <mxCell id="Jtrj6787Ex4Qav3dFPR6-234" value="" style="html=1;jettySize=18;whiteSpace=wrap;fontSize=13;strokeColor=#FFFFFF;strokeOpacity=100;strokeWidth=0.8;rounded=1;arcSize=12;edgeStyle=orthogonalEdgeStyle;startArrow=none;endArrow=block;endFill=1;exitX=0.5;exitY=1.013;exitPerimeter=0;entryX=0.5;entryY=0.008;entryPerimeter=0;lucidId=5k02dQZOGszO;" edge="1" parent="1" source="Jtrj6787Ex4Qav3dFPR6-229" target="Jtrj6787Ex4Qav3dFPR6-235">
          <mxGeometry width="100" height="100" relative="1" as="geometry">
            <Array as="points" />
          </mxGeometry>
        </mxCell>
        <mxCell id="Jtrj6787Ex4Qav3dFPR6-235" value="qsatice.H" style="html=1;overflow=block;blockSpacing=1;whiteSpace=wrap;rhombus;fontSize=16.7;spacing=3.8;strokeColor=#FFFFFF;rounded=1;absoluteArcSize=1;arcSize=9;fillColor=#000000;strokeWidth=NaN;lucidId=5k02GRG~oi7Q;" vertex="1" parent="1">
          <mxGeometry x="1435" y="1648" width="120" height="90" as="geometry" />
        </mxCell>
        <mxCell id="Jtrj6787Ex4Qav3dFPR6-236" value="" style="html=1;jettySize=18;whiteSpace=wrap;fontSize=13;strokeColor=#FFFFFF;strokeOpacity=100;strokeWidth=0.8;rounded=1;arcSize=12;edgeStyle=orthogonalEdgeStyle;startArrow=none;endArrow=block;endFill=1;exitX=0.5;exitY=1.013;exitPerimeter=0;entryX=0.5;entryY=0.008;entryPerimeter=0;lucidId=5k02GvmKBJK-;" edge="1" parent="1" source="Jtrj6787Ex4Qav3dFPR6-231" target="Jtrj6787Ex4Qav3dFPR6-235">
          <mxGeometry width="100" height="100" relative="1" as="geometry">
            <Array as="points" />
          </mxGeometry>
        </mxCell>
        <mxCell id="Jtrj6787Ex4Qav3dFPR6-237" value="" style="html=1;jettySize=18;whiteSpace=wrap;fontSize=13;strokeColor=#FFFFFF;strokeOpacity=100;strokeWidth=0.8;rounded=1;arcSize=12;edgeStyle=orthogonalEdgeStyle;startArrow=none;endArrow=block;endFill=1;exitX=0.5;exitY=1.013;exitPerimeter=0;entryX=0.5;entryY=0.008;entryPerimeter=0;lucidId=5k02RFaE7t8x;" edge="1" parent="1" source="Jtrj6787Ex4Qav3dFPR6-231" target="Jtrj6787Ex4Qav3dFPR6-233">
          <mxGeometry width="100" height="100" relative="1" as="geometry">
            <Array as="points">
              <mxPoint x="1570" y="1630" />
              <mxPoint x="1349" y="1630" />
            </Array>
          </mxGeometry>
        </mxCell>
        <mxCell id="Jtrj6787Ex4Qav3dFPR6-238" value="" style="html=1;jettySize=18;whiteSpace=wrap;fontSize=13;strokeColor=#FFFFFF;strokeOpacity=100;strokeWidth=0.8;rounded=1;arcSize=12;edgeStyle=orthogonalEdgeStyle;startArrow=none;endArrow=block;endFill=1;exitX=0.65;exitY=0.139;exitPerimeter=0;entryX=0.691;entryY=1.013;entryPerimeter=0;lucidId=5k02bG6fC~gr;" edge="1" parent="1" source="Jtrj6787Ex4Qav3dFPR6-235" target="Jtrj6787Ex4Qav3dFPR6-231">
          <mxGeometry width="100" height="100" relative="1" as="geometry">
            <Array as="points">
              <mxPoint x="1513" y="1620" />
              <mxPoint x="1593" y="1620" />
            </Array>
          </mxGeometry>
        </mxCell>
        <mxCell id="Jtrj6787Ex4Qav3dFPR6-239" value="" style="html=1;jettySize=18;whiteSpace=wrap;fontSize=13;strokeColor=#FFFFFF;strokeOpacity=100;strokeWidth=0.8;rounded=1;arcSize=12;edgeStyle=orthogonalEdgeStyle;startArrow=none;endArrow=block;endFill=1;exitX=0.65;exitY=0.139;exitPerimeter=0;entryX=0.299;entryY=1.013;entryPerimeter=0;lucidId=5k02oAl2EMa9;" edge="1" parent="1" source="Jtrj6787Ex4Qav3dFPR6-235" target="Jtrj6787Ex4Qav3dFPR6-229">
          <mxGeometry width="100" height="100" relative="1" as="geometry">
            <Array as="points">
              <mxPoint x="1513" y="1620" />
              <mxPoint x="1396" y="1620" />
            </Array>
          </mxGeometry>
        </mxCell>
        <mxCell id="Jtrj6787Ex4Qav3dFPR6-240" value="" style="html=1;jettySize=18;whiteSpace=wrap;fontSize=13;strokeColor=#FFFFFF;strokeOpacity=100;strokeWidth=0.8;rounded=1;arcSize=12;edgeStyle=orthogonalEdgeStyle;startArrow=none;endArrow=block;endFill=1;exitX=0.5;exitY=0.992;exitPerimeter=0;entryX=0.5;entryY=0.008;entryPerimeter=0;lucidId=5k02f9kjAOmF;" edge="1" parent="1" source="Jtrj6787Ex4Qav3dFPR6-233" target="Jtrj6787Ex4Qav3dFPR6-241">
          <mxGeometry width="100" height="100" relative="1" as="geometry">
            <Array as="points" />
          </mxGeometry>
        </mxCell>
        <mxCell id="Jtrj6787Ex4Qav3dFPR6-241" value="eqsat.H" style="html=1;overflow=block;blockSpacing=1;whiteSpace=wrap;rhombus;fontSize=16.7;spacing=3.8;strokeColor=#FFFFFF;rounded=1;absoluteArcSize=1;arcSize=9;fillColor=#000000;strokeWidth=NaN;lucidId=5k02wPExvakO;" vertex="1" parent="1">
          <mxGeometry x="1289" y="1768" width="120" height="90" as="geometry" />
        </mxCell>
        <mxCell id="Jtrj6787Ex4Qav3dFPR6-242" value="" style="html=1;jettySize=18;whiteSpace=wrap;fontSize=13;strokeColor=#FFFFFF;strokeOpacity=100;strokeWidth=0.8;rounded=1;arcSize=12;edgeStyle=orthogonalEdgeStyle;startArrow=none;endArrow=block;endFill=1;exitX=0.5;exitY=0.992;exitPerimeter=0;entryX=0.5;entryY=-0.012;entryPerimeter=0;lucidId=5k023_ZJYKpS;" edge="1" parent="1" source="Jtrj6787Ex4Qav3dFPR6-241" target="Jtrj6787Ex4Qav3dFPR6-243">
          <mxGeometry width="100" height="100" relative="1" as="geometry">
            <Array as="points" />
          </mxGeometry>
        </mxCell>
        <mxCell id="Jtrj6787Ex4Qav3dFPR6-243" value="MAPL_ EQsatSET" style="html=1;overflow=block;blockSpacing=1;whiteSpace=wrap;fontSize=16.7;spacing=3.8;strokeColor=#000000;rounded=1;absoluteArcSize=1;arcSize=9;fillColor=#000000;strokeWidth=NaN;lucidId=5k02XQyM5fJk;" vertex="1" parent="1">
          <mxGeometry x="1289" y="1903" width="120" height="60" as="geometry" />
        </mxCell>
        <mxCell id="Jtrj6787Ex4Qav3dFPR6-244" value="" style="html=1;jettySize=18;whiteSpace=wrap;fontSize=13;strokeColor=#FFFFFF;strokeOpacity=100;strokeWidth=0.8;rounded=1;arcSize=12;edgeStyle=orthogonalEdgeStyle;startArrow=none;endArrow=block;endFill=1;exitX=0.5;exitY=1.013;exitPerimeter=0;entryX=0.5;entryY=-0.012;entryPerimeter=0;lucidId=5k02f2sJfjPQ;" edge="1" parent="1" source="Jtrj6787Ex4Qav3dFPR6-243" target="Jtrj6787Ex4Qav3dFPR6-245">
          <mxGeometry width="100" height="100" relative="1" as="geometry">
            <Array as="points" />
          </mxGeometry>
        </mxCell>
        <mxCell id="Jtrj6787Ex4Qav3dFPR6-245" value="ESINIT, MAPL version" style="html=1;overflow=block;blockSpacing=1;whiteSpace=wrap;fontSize=16.7;spacing=3.8;strokeColor=#FFFFFF;rounded=1;absoluteArcSize=1;arcSize=9;fillColor=#000000;strokeWidth=NaN;lucidId=5k02iy0H7uLM;" vertex="1" parent="1">
          <mxGeometry x="1289" y="2023" width="120" height="60" as="geometry" />
        </mxCell>
        <mxCell id="Jtrj6787Ex4Qav3dFPR6-246" value="" style="html=1;jettySize=18;whiteSpace=wrap;fontSize=13;strokeColor=#FFFFFF;strokeOpacity=100;strokeWidth=0.8;rounded=1;arcSize=12;edgeStyle=orthogonalEdgeStyle;startArrow=none;endArrow=block;endFill=1;exitX=0.5;exitY=1.013;exitPerimeter=0;entryX=0.5;entryY=-0.012;entryPerimeter=0;lucidId=5k02N-y5cB8_;" edge="1" parent="1" source="Jtrj6787Ex4Qav3dFPR6-214" target="Jtrj6787Ex4Qav3dFPR6-247">
          <mxGeometry width="100" height="100" relative="1" as="geometry">
            <Array as="points" />
          </mxGeometry>
        </mxCell>
        <mxCell id="Jtrj6787Ex4Qav3dFPR6-247" value="ice_fraction" style="html=1;overflow=block;blockSpacing=1;whiteSpace=wrap;fontSize=16.7;spacing=3.8;strokeColor=#FFFFFF;fillOpacity=100;rounded=1;absoluteArcSize=1;arcSize=9;fillColor=#54c45e;strokeWidth=NaN;lucidId=5k02Pti2f-6T;fontColor=#000000;" vertex="1" parent="1">
          <mxGeometry x="1360" y="1303" width="120" height="60" as="geometry" />
        </mxCell>
        <mxCell id="Jtrj6787Ex4Qav3dFPR6-248" value="" style="html=1;jettySize=18;whiteSpace=wrap;fontSize=13;strokeColor=#FFFFFF;strokeOpacity=100;strokeWidth=0.8;rounded=1;arcSize=12;edgeStyle=orthogonalEdgeStyle;startArrow=none;endArrow=block;endFill=1;exitX=0.5;exitY=1.013;exitPerimeter=0;entryX=0.5;entryY=-0.012;entryPerimeter=0;lucidId=5k02Njng09Vv;" edge="1" parent="1" source="Jtrj6787Ex4Qav3dFPR6-225" target="Jtrj6787Ex4Qav3dFPR6-249">
          <mxGeometry width="100" height="100" relative="1" as="geometry">
            <Array as="points" />
          </mxGeometry>
        </mxCell>
        <mxCell id="Jtrj6787Ex4Qav3dFPR6-249" value="DQSAT0" style="html=1;overflow=block;blockSpacing=1;whiteSpace=wrap;fontSize=16.7;spacing=3.8;strokeColor=#FFFFFF;rounded=1;absoluteArcSize=1;arcSize=9;fillColor=#000000;strokeWidth=NaN;lucidId=5k02C.4mQ4KA;" vertex="1" parent="1">
          <mxGeometry x="1094" y="1423" width="120" height="60" as="geometry" />
        </mxCell>
        <mxCell id="Jtrj6787Ex4Qav3dFPR6-250" value="" style="html=1;jettySize=18;whiteSpace=wrap;fontSize=13;strokeColor=#FFFFFF;strokeOpacity=100;strokeWidth=0.8;rounded=1;arcSize=12;edgeStyle=orthogonalEdgeStyle;startArrow=none;endArrow=block;endFill=1;exitX=-0.006;exitY=0.5;exitPerimeter=0;entryX=1.006;entryY=0.5;entryPerimeter=0;lucidId=5k02mGrxfzD0;" edge="1" parent="1" source="Jtrj6787Ex4Qav3dFPR6-249" target="Jtrj6787Ex4Qav3dFPR6-251">
          <mxGeometry width="100" height="100" relative="1" as="geometry">
            <Array as="points" />
          </mxGeometry>
        </mxCell>
        <mxCell id="Jtrj6787Ex4Qav3dFPR6-251" value="ESINIT, GEOS version" style="html=1;overflow=block;blockSpacing=1;whiteSpace=wrap;fontSize=16.7;spacing=3.8;strokeColor=#FFFFFF;rounded=1;absoluteArcSize=1;arcSize=9;fillColor=#000000;strokeWidth=NaN;lucidId=5k02y0Y-q8c5;" vertex="1" parent="1">
          <mxGeometry x="790" y="1543" width="120" height="60" as="geometry" />
        </mxCell>
        <mxCell id="Jtrj6787Ex4Qav3dFPR6-252" value="" style="html=1;jettySize=18;whiteSpace=wrap;fontSize=13;strokeColor=#FFFFFF;strokeOpacity=100;strokeWidth=0.8;rounded=1;arcSize=12;edgeStyle=orthogonalEdgeStyle;startArrow=none;endArrow=block;endFill=1;exitX=0.5;exitY=1.013;exitPerimeter=0;entryX=0.5;entryY=-0.012;entryPerimeter=0;lucidId=5k02uBMD8FgB;" edge="1" parent="1" source="Jtrj6787Ex4Qav3dFPR6-251" target="Jtrj6787Ex4Qav3dFPR6-253">
          <mxGeometry width="100" height="100" relative="1" as="geometry">
            <Array as="points" />
          </mxGeometry>
        </mxCell>
        <mxCell id="Jtrj6787Ex4Qav3dFPR6-253" value="QSATLQU0" style="html=1;overflow=block;blockSpacing=1;whiteSpace=wrap;fontSize=16.7;spacing=3.8;strokeColor=#FFFFFF;rounded=1;absoluteArcSize=1;arcSize=9;fillColor=#000000;strokeWidth=NaN;lucidId=5k02xUjKeYka;" vertex="1" parent="1">
          <mxGeometry x="790" y="1663" width="120" height="60" as="geometry" />
        </mxCell>
        <mxCell id="Jtrj6787Ex4Qav3dFPR6-254" value="" style="html=1;jettySize=18;whiteSpace=wrap;fontSize=13;strokeColor=#FFFFFF;strokeOpacity=100;strokeWidth=0.8;rounded=1;arcSize=12;edgeStyle=orthogonalEdgeStyle;startArrow=none;endArrow=block;endFill=1;exitX=0.5;exitY=1.013;exitPerimeter=0;entryX=0.5;entryY=0.008;entryPerimeter=0;lucidId=5k02Wx289~O9;" edge="1" parent="1" source="Jtrj6787Ex4Qav3dFPR6-253" target="Jtrj6787Ex4Qav3dFPR6-255">
          <mxGeometry width="100" height="100" relative="1" as="geometry">
            <Array as="points" />
          </mxGeometry>
        </mxCell>
        <mxCell id="Jtrj6787Ex4Qav3dFPR6-255" value="qsatlqu.code" style="html=1;overflow=block;blockSpacing=1;whiteSpace=wrap;rhombus;fontSize=16.7;spacing=3.8;strokeColor=#FFFFFF;rounded=1;absoluteArcSize=1;arcSize=9;fillColor=#000000;strokeWidth=NaN;lucidId=5k02GQwethHy;" vertex="1" parent="1">
          <mxGeometry x="790" y="1768" width="120" height="90" as="geometry" />
        </mxCell>
        <mxCell id="Jtrj6787Ex4Qav3dFPR6-256" value="" style="html=1;jettySize=18;whiteSpace=wrap;fontSize=13;strokeColor=#FFFFFF;strokeOpacity=100;strokeWidth=0.8;rounded=1;arcSize=12;edgeStyle=orthogonalEdgeStyle;startArrow=none;endArrow=block;endFill=1;exitX=0.5;exitY=0.992;exitPerimeter=0;entryX=0.5;entryY=0.008;entryPerimeter=0;lucidId=5k02kAMuwpRA;" edge="1" parent="1" source="Jtrj6787Ex4Qav3dFPR6-255" target="Jtrj6787Ex4Qav3dFPR6-257">
          <mxGeometry width="100" height="100" relative="1" as="geometry">
            <Array as="points" />
          </mxGeometry>
        </mxCell>
        <mxCell id="Jtrj6787Ex4Qav3dFPR6-257" value="esatlqu.code" style="html=1;overflow=block;blockSpacing=1;whiteSpace=wrap;rhombus;fontSize=16.7;spacing=3.8;strokeColor=#FFFFFF;rounded=1;absoluteArcSize=1;arcSize=9;fillColor=#000000;strokeWidth=NaN;lucidId=5k02-tRUsXOM;" vertex="1" parent="1">
          <mxGeometry x="790" y="1888" width="120" height="90" as="geometry" />
        </mxCell>
        <mxCell id="Jtrj6787Ex4Qav3dFPR6-258" value="" style="html=1;jettySize=18;whiteSpace=wrap;fontSize=13;strokeColor=#FFFFFF;strokeOpacity=100;strokeWidth=0.8;rounded=1;arcSize=12;edgeStyle=orthogonalEdgeStyle;startArrow=none;endArrow=block;endFill=1;exitX=0.5;exitY=1.013;exitPerimeter=0;entryX=0.5;entryY=-0.012;entryPerimeter=0;lucidId=5k02E_dix0Ac;" edge="1" parent="1" source="Jtrj6787Ex4Qav3dFPR6-251" target="Jtrj6787Ex4Qav3dFPR6-259">
          <mxGeometry width="100" height="100" relative="1" as="geometry">
            <Array as="points" />
          </mxGeometry>
        </mxCell>
        <mxCell id="Jtrj6787Ex4Qav3dFPR6-259" value="QSATICE0" style="html=1;overflow=block;blockSpacing=1;whiteSpace=wrap;fontSize=16.7;spacing=3.8;strokeColor=#FFFFFF;rounded=1;absoluteArcSize=1;arcSize=9;fillColor=#000000;strokeWidth=NaN;lucidId=5k02ubUSYLY~;" vertex="1" parent="1">
          <mxGeometry x="645" y="1663" width="120" height="60" as="geometry" />
        </mxCell>
        <mxCell id="Jtrj6787Ex4Qav3dFPR6-260" value="" style="html=1;jettySize=18;whiteSpace=wrap;fontSize=13;strokeColor=#FFFFFF;strokeOpacity=100;strokeWidth=0.8;rounded=1;arcSize=12;edgeStyle=orthogonalEdgeStyle;startArrow=none;endArrow=block;endFill=1;exitX=0.5;exitY=1.013;exitPerimeter=0;entryX=0.5;entryY=0.008;entryPerimeter=0;lucidId=5k02GzjQlP~J;" edge="1" parent="1" source="Jtrj6787Ex4Qav3dFPR6-259" target="Jtrj6787Ex4Qav3dFPR6-261">
          <mxGeometry width="100" height="100" relative="1" as="geometry">
            <Array as="points" />
          </mxGeometry>
        </mxCell>
        <mxCell id="Jtrj6787Ex4Qav3dFPR6-261" value="qsatice.code" style="html=1;overflow=block;blockSpacing=1;whiteSpace=wrap;rhombus;fontSize=16.7;spacing=3.8;strokeColor=#FFFFFF;rounded=1;absoluteArcSize=1;arcSize=9;fillColor=#000000;strokeWidth=NaN;lucidId=5k021D1LHBuv;" vertex="1" parent="1">
          <mxGeometry x="645" y="1768" width="120" height="90" as="geometry" />
        </mxCell>
        <mxCell id="Jtrj6787Ex4Qav3dFPR6-262" value="" style="html=1;jettySize=18;whiteSpace=wrap;fontSize=13;strokeColor=#FFFFFF;strokeOpacity=100;strokeWidth=0.8;rounded=1;arcSize=12;edgeStyle=orthogonalEdgeStyle;startArrow=none;endArrow=block;endFill=1;exitX=0.5;exitY=0.992;exitPerimeter=0;entryX=0.5;entryY=0.008;entryPerimeter=0;lucidId=5k02Y45IsThx;" edge="1" parent="1" source="Jtrj6787Ex4Qav3dFPR6-261" target="Jtrj6787Ex4Qav3dFPR6-263">
          <mxGeometry width="100" height="100" relative="1" as="geometry">
            <Array as="points" />
          </mxGeometry>
        </mxCell>
        <mxCell id="Jtrj6787Ex4Qav3dFPR6-263" value="esatice.code" style="html=1;overflow=block;blockSpacing=1;whiteSpace=wrap;rhombus;fontSize=16.7;spacing=3.8;strokeColor=#FFFFFF;rounded=1;absoluteArcSize=1;arcSize=9;fillColor=#000000;strokeWidth=NaN;lucidId=5k02seOqydf.;" vertex="1" parent="1">
          <mxGeometry x="645" y="1888" width="120" height="90" as="geometry" />
        </mxCell>
        <mxCell id="Jtrj6787Ex4Qav3dFPR6-264" value="" style="html=1;jettySize=18;whiteSpace=wrap;fontSize=13;strokeColor=#FFFFFF;strokeOpacity=100;strokeWidth=0.8;rounded=1;arcSize=12;edgeStyle=orthogonalEdgeStyle;startArrow=none;endArrow=block;endFill=1;exitX=0.5;exitY=1.013;exitPerimeter=0;entryX=0.5;entryY=-0.012;entryPerimeter=0;lucidId=5k021lm8nlkL;" edge="1" parent="1" source="Jtrj6787Ex4Qav3dFPR6-214" target="Jtrj6787Ex4Qav3dFPR6-265">
          <mxGeometry width="100" height="100" relative="1" as="geometry">
            <Array as="points">
              <mxPoint x="1420" y="1280" />
              <mxPoint x="1570" y="1280" />
            </Array>
          </mxGeometry>
        </mxCell>
        <mxCell id="Jtrj6787Ex4Qav3dFPR6-265" value="partition_ dblgss" style="html=1;overflow=block;blockSpacing=1;whiteSpace=wrap;fontSize=16.7;spacing=3.8;strokeColor=#000000;rounded=1;absoluteArcSize=1;arcSize=9;fillColor=#000000;strokeWidth=NaN;lucidId=5k02ijGMe4ug;fontColor=#FFFFFF;" vertex="1" parent="1">
          <mxGeometry x="1510" y="1304" width="120" height="60" as="geometry" />
        </mxCell>
        <mxCell id="Jtrj6787Ex4Qav3dFPR6-266" value="" style="html=1;jettySize=18;whiteSpace=wrap;fontSize=13;strokeColor=#FFFFFF;strokeOpacity=100;strokeWidth=0.8;rounded=1;arcSize=12;edgeStyle=orthogonalEdgeStyle;startArrow=none;endArrow=block;endFill=1;exitX=0.5;exitY=1.013;exitPerimeter=0;entryX=0.5;entryY=-0.012;entryPerimeter=0;lucidId=5k02GmGLtCuz;" edge="1" parent="1" source="Jtrj6787Ex4Qav3dFPR6-214" target="Jtrj6787Ex4Qav3dFPR6-267">
          <mxGeometry width="100" height="100" relative="1" as="geometry">
            <Array as="points">
              <mxPoint x="1420" y="1280" />
              <mxPoint x="1723" y="1280" />
            </Array>
          </mxGeometry>
        </mxCell>
        <mxCell id="Jtrj6787Ex4Qav3dFPR6-267" value="Bergeron_ Partition" style="html=1;overflow=block;blockSpacing=1;whiteSpace=wrap;fontSize=16.7;spacing=3.8;strokeColor=#000000;rounded=1;absoluteArcSize=1;arcSize=9;fillColor=#000000;strokeWidth=NaN;lucidId=5k02YbhFDFwU;fontColor=#FFFFFF;" vertex="1" parent="1">
          <mxGeometry x="1663" y="1304" width="120" height="60" as="geometry" />
        </mxCell>
        <mxCell id="Jtrj6787Ex4Qav3dFPR6-268" value="" style="html=1;jettySize=18;whiteSpace=wrap;fontSize=13;strokeColor=#FFFFFF;strokeOpacity=100;strokeWidth=0.8;rounded=1;arcSize=12;edgeStyle=orthogonalEdgeStyle;startArrow=none;endArrow=block;endFill=1;exitX=0.5;exitY=1.013;exitPerimeter=0;entryX=0.5;entryY=-0.012;entryPerimeter=0;lucidId=5k02SD~77mLz;" edge="1" parent="1" source="Jtrj6787Ex4Qav3dFPR6-267" target="Jtrj6787Ex4Qav3dFPR6-269">
          <mxGeometry width="100" height="100" relative="1" as="geometry">
            <Array as="points" />
          </mxGeometry>
        </mxCell>
        <mxCell id="Jtrj6787Ex4Qav3dFPR6-269" value="ice_fraction" style="html=1;overflow=block;blockSpacing=1;whiteSpace=wrap;fontSize=16.7;spacing=3.8;strokeColor=#FFFFFF;fillOpacity=100;rounded=1;absoluteArcSize=1;arcSize=9;fillColor=#54c45e;strokeWidth=NaN;lucidId=5k02TSCldm~B;fontColor=#000000;" vertex="1" parent="1">
          <mxGeometry x="1663" y="1424" width="120" height="60" as="geometry" />
        </mxCell>
        <mxCell id="Jtrj6787Ex4Qav3dFPR6-270" value="" style="html=1;jettySize=18;whiteSpace=wrap;fontSize=13;strokeColor=#FFFFFF;strokeOpacity=100;strokeWidth=0.8;rounded=1;arcSize=12;edgeStyle=orthogonalEdgeStyle;startArrow=none;endArrow=block;endFill=1;exitX=0.5;exitY=1.013;exitPerimeter=0;entryX=0.5;entryY=-0.012;entryPerimeter=0;lucidId=5k02OBiuphn.;" edge="1" parent="1" source="Jtrj6787Ex4Qav3dFPR6-267" target="Jtrj6787Ex4Qav3dFPR6-271">
          <mxGeometry width="100" height="100" relative="1" as="geometry">
            <Array as="points" />
          </mxGeometry>
        </mxCell>
        <mxCell id="Jtrj6787Ex4Qav3dFPR6-271" value="QSATLAU0" style="html=1;overflow=block;blockSpacing=1;whiteSpace=wrap;fontSize=16.7;spacing=3.8;strokeColor=#FFFFFF;rounded=1;absoluteArcSize=1;arcSize=9;fillColor=#000000;strokeWidth=NaN;lucidId=5k02UEhWaNL.;" vertex="1" parent="1">
          <mxGeometry x="1808" y="1424" width="120" height="60" as="geometry" />
        </mxCell>
        <mxCell id="Jtrj6787Ex4Qav3dFPR6-272" value="" style="html=1;jettySize=18;whiteSpace=wrap;fontSize=13;strokeColor=#FFFFFF;strokeOpacity=100;strokeWidth=0.8;rounded=1;arcSize=12;edgeStyle=orthogonalEdgeStyle;startArrow=none;endArrow=block;endFill=1;exitX=0.5;exitY=1.013;exitPerimeter=0;entryX=0.5;entryY=-0.012;entryPerimeter=0;lucidId=5k02X2OC.Qcs;" edge="1" parent="1" source="Jtrj6787Ex4Qav3dFPR6-267" target="Jtrj6787Ex4Qav3dFPR6-273">
          <mxGeometry width="100" height="100" relative="1" as="geometry">
            <Array as="points" />
          </mxGeometry>
        </mxCell>
        <mxCell id="Jtrj6787Ex4Qav3dFPR6-273" value="QSATICE0" style="html=1;overflow=block;blockSpacing=1;whiteSpace=wrap;fontSize=16.7;spacing=3.8;strokeColor=#FFFFFF;rounded=1;absoluteArcSize=1;arcSize=9;fillColor=#000000;strokeWidth=NaN;lucidId=5k02rAsnXVNk;" vertex="1" parent="1">
          <mxGeometry x="1954" y="1424" width="120" height="60" as="geometry" />
        </mxCell>
        <mxCell id="Jtrj6787Ex4Qav3dFPR6-274" value="" style="html=1;jettySize=18;whiteSpace=wrap;fontSize=13;strokeColor=#FFFFFF;strokeOpacity=100;strokeWidth=0.8;rounded=1;arcSize=12;edgeStyle=orthogonalEdgeStyle;startArrow=none;endArrow=block;endFill=1;exitX=0.5;exitY=1.013;exitPerimeter=0;entryX=0.5;entryY=0.008;entryPerimeter=0;lucidId=5k02bXRs1T_p;" edge="1" parent="1" source="Jtrj6787Ex4Qav3dFPR6-271" target="Jtrj6787Ex4Qav3dFPR6-275">
          <mxGeometry width="100" height="100" relative="1" as="geometry">
            <Array as="points" />
          </mxGeometry>
        </mxCell>
        <mxCell id="Jtrj6787Ex4Qav3dFPR6-275" value="qsatlau.code" style="html=1;overflow=block;blockSpacing=1;whiteSpace=wrap;rhombus;fontSize=16.7;spacing=3.8;strokeColor=#FFFFFF;rounded=1;absoluteArcSize=1;arcSize=9;fillColor=#000000;strokeWidth=NaN;lucidId=5k02XNMaJ9ac;" vertex="1" parent="1">
          <mxGeometry x="1808" y="1529" width="120" height="90" as="geometry" />
        </mxCell>
        <mxCell id="Jtrj6787Ex4Qav3dFPR6-276" value="" style="html=1;jettySize=18;whiteSpace=wrap;fontSize=13;strokeColor=#FFFFFF;strokeOpacity=100;strokeWidth=0.8;rounded=1;arcSize=12;edgeStyle=orthogonalEdgeStyle;startArrow=none;endArrow=block;endFill=1;exitX=0.5;exitY=0.992;exitPerimeter=0;entryX=0.5;entryY=0.008;entryPerimeter=0;lucidId=5k02utmy_OHb;" edge="1" parent="1" source="Jtrj6787Ex4Qav3dFPR6-275" target="Jtrj6787Ex4Qav3dFPR6-277">
          <mxGeometry width="100" height="100" relative="1" as="geometry">
            <Array as="points" />
          </mxGeometry>
        </mxCell>
        <mxCell id="Jtrj6787Ex4Qav3dFPR6-277" value="esatlau.code" style="html=1;overflow=block;blockSpacing=1;whiteSpace=wrap;rhombus;fontSize=16.7;spacing=3.8;strokeColor=#FFFFFF;rounded=1;absoluteArcSize=1;arcSize=9;fillColor=#000000;strokeWidth=NaN;lucidId=5k02HtHgBVfx;" vertex="1" parent="1">
          <mxGeometry x="1808" y="1649" width="120" height="90" as="geometry" />
        </mxCell>
        <mxCell id="Jtrj6787Ex4Qav3dFPR6-278" value="" style="html=1;jettySize=18;whiteSpace=wrap;fontSize=13;strokeColor=#FFFFFF;strokeOpacity=100;strokeWidth=0.8;rounded=1;arcSize=12;edgeStyle=orthogonalEdgeStyle;startArrow=none;endArrow=block;endFill=1;exitX=0.5;exitY=1.013;exitPerimeter=0;entryX=0.5;entryY=0.008;entryPerimeter=0;lucidId=5k02sqmu1Smx;" edge="1" parent="1" source="Jtrj6787Ex4Qav3dFPR6-273" target="Jtrj6787Ex4Qav3dFPR6-279">
          <mxGeometry width="100" height="100" relative="1" as="geometry">
            <Array as="points" />
          </mxGeometry>
        </mxCell>
        <mxCell id="Jtrj6787Ex4Qav3dFPR6-279" value="qsatice.code" style="html=1;overflow=block;blockSpacing=1;whiteSpace=wrap;rhombus;fontSize=16.7;spacing=3.8;strokeColor=#FFFFFF;rounded=1;absoluteArcSize=1;arcSize=9;fillColor=#000000;strokeWidth=NaN;lucidId=5k027U0OL13-;" vertex="1" parent="1">
          <mxGeometry x="1954" y="1529" width="120" height="90" as="geometry" />
        </mxCell>
        <mxCell id="Jtrj6787Ex4Qav3dFPR6-280" value="" style="html=1;jettySize=18;whiteSpace=wrap;fontSize=13;strokeColor=#FFFFFF;strokeOpacity=100;strokeWidth=0.8;rounded=1;arcSize=12;edgeStyle=orthogonalEdgeStyle;startArrow=none;endArrow=block;endFill=1;exitX=0.5;exitY=0.992;exitPerimeter=0;entryX=0.5;entryY=0.008;entryPerimeter=0;lucidId=5k02rOvP9kyC;" edge="1" parent="1" source="Jtrj6787Ex4Qav3dFPR6-279" target="Jtrj6787Ex4Qav3dFPR6-281">
          <mxGeometry width="100" height="100" relative="1" as="geometry">
            <Array as="points" />
          </mxGeometry>
        </mxCell>
        <mxCell id="Jtrj6787Ex4Qav3dFPR6-281" value="esatice.code" style="html=1;overflow=block;blockSpacing=1;whiteSpace=wrap;rhombus;fontSize=16.7;spacing=3.8;strokeColor=#FFFFFF;rounded=1;absoluteArcSize=1;arcSize=9;fillColor=#000000;strokeWidth=NaN;lucidId=5k028rml8-4O;" vertex="1" parent="1">
          <mxGeometry x="1954" y="1649" width="120" height="90" as="geometry" />
        </mxCell>
        <mxCell id="Jtrj6787Ex4Qav3dFPR6-282" value="" style="html=1;jettySize=18;whiteSpace=wrap;fontSize=13;strokeColor=#FFFFFF;strokeOpacity=100;strokeWidth=0.8;rounded=1;arcSize=12;edgeStyle=orthogonalEdgeStyle;startArrow=none;endArrow=block;endFill=1;exitX=0.5;exitY=1.013;exitPerimeter=0;entryX=0.5;entryY=-0.012;entryPerimeter=0;lucidId=Ru027RAc4~eW;" edge="1" parent="1" source="Jtrj6787Ex4Qav3dFPR6-210" target="Jtrj6787Ex4Qav3dFPR6-283">
          <mxGeometry width="100" height="100" relative="1" as="geometry">
            <Array as="points" />
          </mxGeometry>
        </mxCell>
        <mxCell id="Jtrj6787Ex4Qav3dFPR6-283" value="GEOS_QSAT" style="html=1;overflow=block;blockSpacing=1;whiteSpace=wrap;fontSize=16.7;spacing=3.8;strokeColor=#FFFFFF;fillOpacity=100;rounded=1;absoluteArcSize=1;arcSize=9;fillColor=#000000;strokeWidth=NaN;lucidId=Ru02v8n6GkJe;" vertex="1" parent="1">
          <mxGeometry x="790" y="936" width="120" height="60" as="geometry" />
        </mxCell>
        <mxCell id="Jtrj6787Ex4Qav3dFPR6-284" value="" style="html=1;jettySize=18;whiteSpace=wrap;fontSize=13;strokeColor=#FFFFFF;strokeOpacity=100;strokeWidth=0.8;rounded=1;arcSize=12;edgeStyle=orthogonalEdgeStyle;startArrow=none;endArrow=block;endFill=1;exitX=0.5;exitY=1.013;exitPerimeter=0;entryX=0.5;entryY=-0.012;entryPerimeter=0;lucidId=7A020fTw1R75;" edge="1" parent="1" source="Jtrj6787Ex4Qav3dFPR6-283" target="Jtrj6787Ex4Qav3dFPR6-285">
          <mxGeometry width="100" height="100" relative="1" as="geometry">
            <Array as="points" />
          </mxGeometry>
        </mxCell>
        <mxCell id="Jtrj6787Ex4Qav3dFPR6-285" value="QSAT0" style="html=1;overflow=block;blockSpacing=1;whiteSpace=wrap;fontSize=16.7;spacing=3.8;strokeColor=#FFFFFF;fillOpacity=100;rounded=1;absoluteArcSize=1;arcSize=9;fillColor=#000000;strokeWidth=NaN;lucidId=7A02Ug9w1imk;" vertex="1" parent="1">
          <mxGeometry x="790" y="1056" width="120" height="60" as="geometry" />
        </mxCell>
        <mxCell id="Jtrj6787Ex4Qav3dFPR6-286" value="" style="html=1;jettySize=18;whiteSpace=wrap;fontSize=13;strokeColor=#FFFFFF;strokeOpacity=100;strokeWidth=0.8;rounded=1;arcSize=12;edgeStyle=orthogonalEdgeStyle;startArrow=none;endArrow=block;endFill=1;exitX=0.5;exitY=1.013;exitPerimeter=0;entryX=0.5;entryY=-0.013;entryPerimeter=0;lucidId=uB02K7uVILGL;" edge="1" parent="1" source="Jtrj6787Ex4Qav3dFPR6-285" target="Jtrj6787Ex4Qav3dFPR6-251">
          <mxGeometry width="100" height="100" relative="1" as="geometry">
            <Array as="points" />
          </mxGeometry>
        </mxCell>
        <mxCell id="Jtrj6787Ex4Qav3dFPR6-287" value="" style="html=1;jettySize=18;whiteSpace=wrap;fontSize=13;strokeColor=#FFFFFF;strokeOpacity=100;strokeWidth=0.8;rounded=1;arcSize=12;edgeStyle=orthogonalEdgeStyle;startArrow=none;endArrow=block;endFill=1;exitX=-0.006;exitY=0.5;exitPerimeter=0;entryX=1.006;entryY=0.5;entryPerimeter=0;lucidId=wG02YtVq8VF9;" edge="1" parent="1" source="Jtrj6787Ex4Qav3dFPR6-211" target="Jtrj6787Ex4Qav3dFPR6-285">
          <mxGeometry width="100" height="100" relative="1" as="geometry">
            <Array as="points">
              <mxPoint x="1060" y="847" />
              <mxPoint x="1060" y="1086" />
            </Array>
          </mxGeometry>
        </mxCell>
        <mxCell id="Jtrj6787Ex4Qav3dFPR6-288" value="" style="html=1;jettySize=18;whiteSpace=wrap;fontSize=13;strokeColor=#FFFFFF;strokeOpacity=100;strokeWidth=0.8;rounded=1;arcSize=12;edgeStyle=orthogonalEdgeStyle;startArrow=none;endArrow=block;endFill=1;exitX=0.5;exitY=1.013;exitPerimeter=0;entryX=0.5;entryY=-0.012;entryPerimeter=0;lucidId=1U022xVcj623;" edge="1" parent="1" source="Jtrj6787Ex4Qav3dFPR6-203" target="Jtrj6787Ex4Qav3dFPR6-289">
          <mxGeometry width="100" height="100" relative="1" as="geometry">
            <Array as="points" />
          </mxGeometry>
        </mxCell>
        <mxCell id="Jtrj6787Ex4Qav3dFPR6-289" value="GEOS_QSAT" style="html=1;overflow=block;blockSpacing=1;whiteSpace=wrap;fontSize=16.7;spacing=3.8;strokeColor=#FFFFFF;fillOpacity=100;rounded=1;absoluteArcSize=1;arcSize=9;fillColor=#000000;strokeWidth=NaN;lucidId=1U02~J_UmkIv;" vertex="1" parent="1">
          <mxGeometry x="1219" y="937" width="120" height="60" as="geometry" />
        </mxCell>
        <mxCell id="Jtrj6787Ex4Qav3dFPR6-290" value="" style="html=1;jettySize=18;whiteSpace=wrap;fontSize=13;strokeColor=#FFFFFF;strokeOpacity=100;strokeWidth=0.8;rounded=1;arcSize=12;edgeStyle=orthogonalEdgeStyle;startArrow=none;endArrow=block;endFill=1;exitX=-0.006;exitY=0.5;exitPerimeter=0;entryX=1.006;entryY=0.5;entryPerimeter=0;lucidId=uV02P92WQXA.;" edge="1" parent="1" source="Jtrj6787Ex4Qav3dFPR6-289" target="Jtrj6787Ex4Qav3dFPR6-285">
          <mxGeometry width="100" height="100" relative="1" as="geometry">
            <Array as="points">
              <mxPoint x="1060" y="967" />
              <mxPoint x="1060" y="1086" />
            </Array>
          </mxGeometry>
        </mxCell>
        <mxCell id="Jtrj6787Ex4Qav3dFPR6-291" value="" style="html=1;jettySize=18;whiteSpace=wrap;fontSize=13;strokeColor=#FFFFFF;strokeOpacity=100;strokeWidth=0.8;rounded=1;arcSize=12;edgeStyle=orthogonalEdgeStyle;startArrow=none;endArrow=block;endFill=1;exitX=0.5;exitY=1.013;exitPerimeter=0;entryX=0.5;entryY=-0.013;entryPerimeter=0;lucidId=x402Dd4E0bKp;" edge="1" parent="1" source="Jtrj6787Ex4Qav3dFPR6-205" target="Jtrj6787Ex4Qav3dFPR6-216">
          <mxGeometry width="100" height="100" relative="1" as="geometry">
            <Array as="points">
              <mxPoint x="1420" y="1030" />
              <mxPoint x="1280" y="1030" />
            </Array>
          </mxGeometry>
        </mxCell>
        <mxCell id="Jtrj6787Ex4Qav3dFPR6-292" value="" style="html=1;jettySize=18;whiteSpace=wrap;fontSize=13;strokeColor=#FFFFFF;strokeOpacity=100;strokeWidth=0.8;rounded=1;arcSize=12;edgeStyle=orthogonalEdgeStyle;startArrow=none;endArrow=block;endFill=1;exitX=0.5;exitY=1.013;exitPerimeter=0;entryX=0.5;entryY=-0.012;entryPerimeter=0;lucidId=L402_EJpJnrB;" edge="1" parent="1" source="Jtrj6787Ex4Qav3dFPR6-205" target="Jtrj6787Ex4Qav3dFPR6-214">
          <mxGeometry width="100" height="100" relative="1" as="geometry">
            <Array as="points" />
          </mxGeometry>
        </mxCell>
        <mxCell id="Jtrj6787Ex4Qav3dFPR6-293" value="" style="html=1;jettySize=18;whiteSpace=wrap;fontSize=13;strokeColor=#FFFFFF;strokeOpacity=100;strokeWidth=0.8;rounded=1;arcSize=12;edgeStyle=orthogonalEdgeStyle;startArrow=none;endArrow=block;endFill=1;exitX=0.5;exitY=1.013;exitPerimeter=0;entryX=0.5;entryY=-0.013;entryPerimeter=0;lucidId=Z402pQchWA3I;" edge="1" parent="1" source="Jtrj6787Ex4Qav3dFPR6-205" target="Jtrj6787Ex4Qav3dFPR6-212">
          <mxGeometry width="100" height="100" relative="1" as="geometry">
            <Array as="points">
              <mxPoint x="1420" y="1030" />
              <mxPoint x="1570" y="1030" />
            </Array>
          </mxGeometry>
        </mxCell>
        <mxCell id="Jtrj6787Ex4Qav3dFPR6-294" value="" style="html=1;jettySize=18;whiteSpace=wrap;fontSize=13;strokeColor=#FFFFFF;strokeOpacity=100;strokeWidth=0.8;rounded=1;arcSize=12;edgeStyle=orthogonalEdgeStyle;startArrow=none;endArrow=block;endFill=1;exitX=0.5;exitY=1.013;exitPerimeter=0;entryX=0.5;entryY=-0.012;entryPerimeter=0;lucidId=7402Gm~8~0eZ;" edge="1" parent="1" source="Jtrj6787Ex4Qav3dFPR6-205" target="Jtrj6787Ex4Qav3dFPR6-213">
          <mxGeometry width="100" height="100" relative="1" as="geometry">
            <Array as="points">
              <mxPoint x="1420" y="1030" />
              <mxPoint x="1718" y="1030" />
            </Array>
          </mxGeometry>
        </mxCell>
        <mxCell id="Jtrj6787Ex4Qav3dFPR6-295" value="" style="html=1;jettySize=18;whiteSpace=wrap;fontSize=13;strokeColor=#FFFFFF;strokeOpacity=100;strokeWidth=0.8;rounded=1;arcSize=12;edgeStyle=orthogonalEdgeStyle;startArrow=none;endArrow=block;endFill=1;exitX=0.5;exitY=1.013;exitPerimeter=0;entryX=0.5;entryY=-0.012;entryPerimeter=0;lucidId=a502fmyByZ-h;" edge="1" parent="1" source="Jtrj6787Ex4Qav3dFPR6-205" target="Jtrj6787Ex4Qav3dFPR6-215">
          <mxGeometry width="100" height="100" relative="1" as="geometry">
            <Array as="points">
              <mxPoint x="1420" y="1030" />
              <mxPoint x="1864" y="1030" />
            </Array>
          </mxGeometry>
        </mxCell>
        <mxCell id="Jtrj6787Ex4Qav3dFPR6-296" value="" style="html=1;jettySize=18;whiteSpace=wrap;fontSize=13;strokeColor=#FFFFFF;strokeOpacity=100;strokeWidth=0.8;rounded=1;arcSize=12;edgeStyle=orthogonalEdgeStyle;startArrow=none;endArrow=block;endFill=1;exitX=0.5;exitY=1.013;exitPerimeter=0;entryX=0.5;entryY=-0.012;entryPerimeter=0;lucidId=f502~LoYXoO7;" edge="1" parent="1" source="Jtrj6787Ex4Qav3dFPR6-205" target="Jtrj6787Ex4Qav3dFPR6-217">
          <mxGeometry width="100" height="100" relative="1" as="geometry">
            <Array as="points">
              <mxPoint x="1420" y="1030" />
              <mxPoint x="2009" y="1030" />
            </Array>
          </mxGeometry>
        </mxCell>
        <mxCell id="Jtrj6787Ex4Qav3dFPR6-297" value="" style="html=1;jettySize=18;whiteSpace=wrap;fontSize=13;strokeColor=#FFFFFF;strokeOpacity=100;strokeWidth=0.8;rounded=1;arcSize=12;edgeStyle=orthogonalEdgeStyle;startArrow=none;endArrow=block;endFill=1;entryX=0.5;entryY=-0.011;entryPerimeter=0;lucidId=X902k0ccmMzH;exitX=0.5;exitY=1;exitDx=0;exitDy=0;" edge="1" parent="1" source="Jtrj6787Ex4Qav3dFPR6-208" target="Jtrj6787Ex4Qav3dFPR6-298">
          <mxGeometry width="100" height="100" relative="1" as="geometry">
            <Array as="points" />
            <mxPoint x="1930" y="850" as="sourcePoint" />
          </mxGeometry>
        </mxCell>
        <mxCell id="Jtrj6787Ex4Qav3dFPR6-298" value="mpdrv" style="html=1;overflow=block;blockSpacing=1;whiteSpace=wrap;fontSize=16.7;spacing=3.8;strokeColor=#FFFFFF;fillOpacity=100;rounded=1;absoluteArcSize=1;arcSize=9;fillColor=#000000;strokeWidth=NaN;lucidId=X902HL_V-PrX;" vertex="1" parent="1">
          <mxGeometry x="2271" y="1052" width="120" height="68" as="geometry" />
        </mxCell>
        <mxCell id="Jtrj6787Ex4Qav3dFPR6-299" value="" style="html=1;jettySize=18;whiteSpace=wrap;fontSize=13;strokeColor=#FFFFFF;strokeOpacity=100;strokeWidth=0.8;rounded=1;arcSize=12;edgeStyle=orthogonalEdgeStyle;startArrow=none;endArrow=block;endFill=1;exitX=0.5;exitY=1.011;exitPerimeter=0;entryX=0.5;entryY=-0.011;entryPerimeter=0;lucidId=0.020bMqw2ET;" edge="1" parent="1" source="Jtrj6787Ex4Qav3dFPR6-298" target="Jtrj6787Ex4Qav3dFPR6-300">
          <mxGeometry width="100" height="100" relative="1" as="geometry">
            <Array as="points" />
          </mxGeometry>
        </mxCell>
        <mxCell id="Jtrj6787Ex4Qav3dFPR6-300" value="fall_speed" style="html=1;overflow=block;blockSpacing=1;whiteSpace=wrap;fontSize=16.7;spacing=3.8;strokeColor=#FFFFFF;fillOpacity=100;rounded=1;absoluteArcSize=1;arcSize=9;fillColor=#000000;strokeWidth=NaN;lucidId=0.02HuJn34x8;" vertex="1" parent="1">
          <mxGeometry x="2271" y="1180" width="120" height="68" as="geometry" />
        </mxCell>
        <mxCell id="Jtrj6787Ex4Qav3dFPR6-301" value="" style="html=1;jettySize=18;whiteSpace=wrap;fontSize=13;strokeColor=#FFFFFF;strokeOpacity=100;strokeWidth=0.8;rounded=1;arcSize=12;edgeStyle=orthogonalEdgeStyle;startArrow=none;endArrow=block;endFill=1;exitX=0.5;exitY=1.011;exitPerimeter=0;entryX=0.5;entryY=-0.011;entryPerimeter=0;lucidId=t~02C3rjjvQz;" edge="1" parent="1" source="Jtrj6787Ex4Qav3dFPR6-298" target="Jtrj6787Ex4Qav3dFPR6-302">
          <mxGeometry width="100" height="100" relative="1" as="geometry">
            <Array as="points" />
          </mxGeometry>
        </mxCell>
        <mxCell id="Jtrj6787Ex4Qav3dFPR6-302" value="terminal_fall" style="html=1;overflow=block;blockSpacing=1;whiteSpace=wrap;fontSize=16.7;spacing=3.8;strokeColor=#FFFFFF;fillOpacity=100;rounded=1;absoluteArcSize=1;arcSize=9;fillColor=#000000;strokeWidth=NaN;lucidId=t~02z5qUMtAS;" vertex="1" parent="1">
          <mxGeometry x="2416" y="1180" width="120" height="68" as="geometry" />
        </mxCell>
        <mxCell id="Jtrj6787Ex4Qav3dFPR6-303" value="" style="html=1;jettySize=18;whiteSpace=wrap;fontSize=13;strokeColor=#FFFFFF;strokeOpacity=100;strokeWidth=0.8;rounded=1;arcSize=12;edgeStyle=orthogonalEdgeStyle;startArrow=none;endArrow=block;endFill=1;exitX=0.5;exitY=1.011;exitPerimeter=0;entryX=0.5;entryY=-0.011;entryPerimeter=0;lucidId=u~02vKUNjPSE;" edge="1" parent="1" source="Jtrj6787Ex4Qav3dFPR6-298" target="Jtrj6787Ex4Qav3dFPR6-304">
          <mxGeometry width="100" height="100" relative="1" as="geometry">
            <Array as="points" />
          </mxGeometry>
        </mxCell>
        <mxCell id="Jtrj6787Ex4Qav3dFPR6-304" value="neg_adj" style="html=1;overflow=block;blockSpacing=1;whiteSpace=wrap;fontSize=16.7;spacing=3.8;strokeColor=#FFFFFF;fillOpacity=100;rounded=1;absoluteArcSize=1;arcSize=9;fillColor=#000000;strokeWidth=NaN;lucidId=u~02_nI2RUkA;" vertex="1" parent="1">
          <mxGeometry x="2125" y="1180" width="120" height="68" as="geometry" />
        </mxCell>
        <mxCell id="Jtrj6787Ex4Qav3dFPR6-305" value="" style="html=1;jettySize=18;whiteSpace=wrap;fontSize=13;strokeColor=#FFFFFF;strokeOpacity=100;strokeWidth=0.8;rounded=1;arcSize=12;edgeStyle=orthogonalEdgeStyle;startArrow=none;endArrow=block;endFill=1;exitX=0.5;exitY=1.011;exitPerimeter=0;entryX=0.319;entryY=-0.011;entryPerimeter=0;lucidId=La12eo_nxCJt;" edge="1" parent="1" source="Jtrj6787Ex4Qav3dFPR6-302" target="Jtrj6787Ex4Qav3dFPR6-315">
          <mxGeometry width="100" height="100" relative="1" as="geometry">
            <Array as="points">
              <mxPoint x="2476" y="1270" />
              <mxPoint x="2745" y="1270" />
            </Array>
          </mxGeometry>
        </mxCell>
        <mxCell id="Jtrj6787Ex4Qav3dFPR6-306" value="" style="html=1;jettySize=18;whiteSpace=wrap;fontSize=13;strokeColor=#FFFFFF;strokeOpacity=100;strokeWidth=0.8;rounded=1;arcSize=12;edgeStyle=orthogonalEdgeStyle;startArrow=none;endArrow=block;endFill=1;exitX=0.5;exitY=1.011;exitPerimeter=0;entryX=0.5;entryY=-0.012;entryPerimeter=0;lucidId=8a12-ZT7JkSA;" edge="1" parent="1" source="Jtrj6787Ex4Qav3dFPR6-302" target="Jtrj6787Ex4Qav3dFPR6-307">
          <mxGeometry width="100" height="100" relative="1" as="geometry">
            <Array as="points">
              <mxPoint x="2476" y="1270" />
              <mxPoint x="2331" y="1270" />
            </Array>
          </mxGeometry>
        </mxCell>
        <mxCell id="Jtrj6787Ex4Qav3dFPR6-307" value="lagrangian_ fall_ppm" style="html=1;overflow=block;blockSpacing=1;whiteSpace=wrap;fontSize=16.7;spacing=3.8;strokeColor=#FFFFFF;fillOpacity=100;rounded=1;absoluteArcSize=1;arcSize=9;fillColor=#000000;strokeWidth=NaN;lucidId=8a12d-~sNHZ~;" vertex="1" parent="1">
          <mxGeometry x="2271" y="1310" width="120" height="60" as="geometry" />
        </mxCell>
        <mxCell id="Jtrj6787Ex4Qav3dFPR6-308" value="" style="html=1;jettySize=18;whiteSpace=wrap;fontSize=13;strokeColor=#FFFFFF;strokeOpacity=100;strokeWidth=0.8;rounded=1;arcSize=12;edgeStyle=orthogonalEdgeStyle;startArrow=none;endArrow=block;endFill=1;exitX=0.5;exitY=1.011;exitPerimeter=0;entryX=0.334;entryY=-0.011;entryPerimeter=0;lucidId=-a12RDmhC~VL;" edge="1" parent="1" source="Jtrj6787Ex4Qav3dFPR6-302" target="Jtrj6787Ex4Qav3dFPR6-309">
          <mxGeometry width="100" height="100" relative="1" as="geometry">
            <Array as="points">
              <mxPoint x="2476" y="1270" />
              <mxPoint x="2456" y="1270" />
            </Array>
          </mxGeometry>
        </mxCell>
        <mxCell id="Jtrj6787Ex4Qav3dFPR6-309" value="implicit_fall" style="html=1;overflow=block;blockSpacing=1;whiteSpace=wrap;fontSize=16.7;spacing=3.8;strokeColor=#FFFFFF;fillOpacity=100;rounded=1;absoluteArcSize=1;arcSize=9;fillColor=#000000;strokeWidth=NaN;lucidId=-a12batSwhLg;" vertex="1" parent="1">
          <mxGeometry x="2416" y="1306" width="120" height="68" as="geometry" />
        </mxCell>
        <mxCell id="Jtrj6787Ex4Qav3dFPR6-310" value="" style="html=1;jettySize=18;whiteSpace=wrap;fontSize=13;strokeColor=#FFFFFF;strokeOpacity=100;strokeWidth=0.8;rounded=1;arcSize=12;edgeStyle=orthogonalEdgeStyle;startArrow=none;endArrow=block;endFill=1;exitX=0.5;exitY=1.011;exitPerimeter=0;entryX=0.5;entryY=-0.011;entryPerimeter=0;lucidId=Zf127ucJuZlF;" edge="1" parent="1" source="Jtrj6787Ex4Qav3dFPR6-298" target="Jtrj6787Ex4Qav3dFPR6-311">
          <mxGeometry width="100" height="100" relative="1" as="geometry">
            <Array as="points" />
          </mxGeometry>
        </mxCell>
        <mxCell id="Jtrj6787Ex4Qav3dFPR6-311" value="sedi_heat" style="html=1;overflow=block;blockSpacing=1;whiteSpace=wrap;fontSize=16.7;spacing=3.8;strokeColor=#FFFFFF;fillOpacity=100;rounded=1;absoluteArcSize=1;arcSize=9;fillColor=#000000;strokeWidth=NaN;lucidId=Zf125KGXCvmF;" vertex="1" parent="1">
          <mxGeometry x="2562" y="1180" width="120" height="68" as="geometry" />
        </mxCell>
        <mxCell id="Jtrj6787Ex4Qav3dFPR6-312" value="" style="html=1;jettySize=18;whiteSpace=wrap;fontSize=13;strokeColor=#FFFFFF;strokeOpacity=100;strokeWidth=0.8;rounded=1;arcSize=12;edgeStyle=orthogonalEdgeStyle;startArrow=none;endArrow=block;endFill=1;exitX=0.5;exitY=1.011;exitPerimeter=0;entryX=0.5;entryY=-0.011;entryPerimeter=0;lucidId=av22v23pznga;" edge="1" parent="1" source="Jtrj6787Ex4Qav3dFPR6-298" target="Jtrj6787Ex4Qav3dFPR6-313">
          <mxGeometry width="100" height="100" relative="1" as="geometry">
            <Array as="points" />
          </mxGeometry>
        </mxCell>
        <mxCell id="Jtrj6787Ex4Qav3dFPR6-313" value="warm_rain" style="html=1;overflow=block;blockSpacing=1;whiteSpace=wrap;fontSize=16.7;spacing=3.8;strokeColor=#FFFFFF;fillOpacity=100;rounded=1;absoluteArcSize=1;arcSize=9;fillColor=#000000;strokeWidth=NaN;lucidId=av22HVhY4Hn9;" vertex="1" parent="1">
          <mxGeometry x="2707" y="1180" width="120" height="68" as="geometry" />
        </mxCell>
        <mxCell id="Jtrj6787Ex4Qav3dFPR6-314" value="" style="html=1;jettySize=18;whiteSpace=wrap;fontSize=13;strokeColor=#FFFFFF;strokeOpacity=100;strokeWidth=0.8;rounded=1;arcSize=12;edgeStyle=orthogonalEdgeStyle;startArrow=none;endArrow=block;endFill=1;exitX=0.5;exitY=1.011;exitPerimeter=0;entryX=0.5;entryY=-0.011;entryPerimeter=0;lucidId=rv22Z0BiKAqn;" edge="1" parent="1" source="Jtrj6787Ex4Qav3dFPR6-313" target="Jtrj6787Ex4Qav3dFPR6-315">
          <mxGeometry width="100" height="100" relative="1" as="geometry">
            <Array as="points" />
          </mxGeometry>
        </mxCell>
        <mxCell id="Jtrj6787Ex4Qav3dFPR6-315" value="check_column" style="html=1;overflow=block;blockSpacing=1;whiteSpace=wrap;fontSize=16.7;spacing=3.8;strokeColor=#FFFFFF;fillOpacity=100;rounded=1;absoluteArcSize=1;arcSize=9;fillColor=#000000;strokeWidth=NaN;lucidId=rv22x-7NKl_l;" vertex="1" parent="1">
          <mxGeometry x="2707" y="1306" width="120" height="68" as="geometry" />
        </mxCell>
        <mxCell id="Jtrj6787Ex4Qav3dFPR6-316" value="" style="html=1;jettySize=18;whiteSpace=wrap;fontSize=13;strokeColor=#FFFFFF;strokeOpacity=100;strokeWidth=0.8;rounded=1;arcSize=12;edgeStyle=orthogonalEdgeStyle;startArrow=none;endArrow=block;endFill=1;exitX=0.5;exitY=1.011;exitPerimeter=0;entryX=0.5;entryY=-0.011;entryPerimeter=0;lucidId=rx22T7xEmGQM;" edge="1" parent="1" source="Jtrj6787Ex4Qav3dFPR6-313" target="Jtrj6787Ex4Qav3dFPR6-317">
          <mxGeometry width="100" height="100" relative="1" as="geometry">
            <Array as="points">
              <mxPoint x="2767" y="1290" />
              <mxPoint x="2622" y="1290" />
            </Array>
          </mxGeometry>
        </mxCell>
        <mxCell id="Jtrj6787Ex4Qav3dFPR6-317" value="linear_prof" style="html=1;overflow=block;blockSpacing=1;whiteSpace=wrap;fontSize=16.7;spacing=3.8;strokeColor=#FFFFFF;fillOpacity=100;rounded=1;absoluteArcSize=1;arcSize=9;fillColor=#000000;strokeWidth=NaN;lucidId=rx22_1.~dSf~;" vertex="1" parent="1">
          <mxGeometry x="2562" y="1306" width="120" height="68" as="geometry" />
        </mxCell>
        <mxCell id="Jtrj6787Ex4Qav3dFPR6-318" value="" style="html=1;jettySize=18;whiteSpace=wrap;fontSize=13;strokeColor=#FFFFFF;strokeOpacity=100;strokeWidth=0.8;rounded=1;arcSize=12;edgeStyle=orthogonalEdgeStyle;startArrow=none;endArrow=block;endFill=1;exitX=0.5;exitY=1.011;exitPerimeter=0;entryX=0.5;entryY=-0.011;entryPerimeter=0;lucidId=Yx22BVmcaG9s;" edge="1" parent="1" source="Jtrj6787Ex4Qav3dFPR6-313" target="Jtrj6787Ex4Qav3dFPR6-319">
          <mxGeometry width="100" height="100" relative="1" as="geometry">
            <Array as="points">
              <mxPoint x="2767" y="1290" />
              <mxPoint x="2913" y="1290" />
            </Array>
          </mxGeometry>
        </mxCell>
        <mxCell id="Jtrj6787Ex4Qav3dFPR6-319" value="revap_racc" style="html=1;overflow=block;blockSpacing=1;whiteSpace=wrap;fontSize=16.7;spacing=3.8;strokeColor=#FFFFFF;fillOpacity=100;rounded=1;absoluteArcSize=1;arcSize=9;fillColor=#000000;strokeWidth=NaN;lucidId=Yx22_-QArujp;" vertex="1" parent="1">
          <mxGeometry x="2853" y="1306" width="120" height="68" as="geometry" />
        </mxCell>
        <mxCell id="Jtrj6787Ex4Qav3dFPR6-320" value="" style="html=1;jettySize=18;whiteSpace=wrap;fontSize=13;strokeColor=#FFFFFF;strokeOpacity=100;strokeWidth=0.8;rounded=1;arcSize=12;edgeStyle=orthogonalEdgeStyle;startArrow=none;endArrow=block;endFill=1;exitX=0.5;exitY=1.011;exitPerimeter=0;entryX=0.5;entryY=-0.011;entryPerimeter=0;lucidId=0z22ynuxB5RA;" edge="1" parent="1" source="Jtrj6787Ex4Qav3dFPR6-313" target="Jtrj6787Ex4Qav3dFPR6-309">
          <mxGeometry width="100" height="100" relative="1" as="geometry">
            <Array as="points">
              <mxPoint x="2767" y="1290" />
              <mxPoint x="2476" y="1290" />
            </Array>
          </mxGeometry>
        </mxCell>
        <mxCell id="Jtrj6787Ex4Qav3dFPR6-321" value="" style="html=1;jettySize=18;whiteSpace=wrap;fontSize=13;strokeColor=#FFFFFF;strokeOpacity=100;strokeWidth=0.8;rounded=1;arcSize=12;edgeStyle=orthogonalEdgeStyle;startArrow=none;endArrow=block;endFill=1;exitX=0.5;exitY=1.011;exitPerimeter=0;entryX=0.679;entryY=-0.012;entryPerimeter=0;lucidId=-z22oyfP65I.;" edge="1" parent="1" source="Jtrj6787Ex4Qav3dFPR6-313" target="Jtrj6787Ex4Qav3dFPR6-307">
          <mxGeometry width="100" height="100" relative="1" as="geometry">
            <Array as="points">
              <mxPoint x="2767" y="1290" />
              <mxPoint x="2353" y="1290" />
            </Array>
          </mxGeometry>
        </mxCell>
        <mxCell id="Jtrj6787Ex4Qav3dFPR6-324" value="" style="html=1;jettySize=18;whiteSpace=wrap;fontSize=13;strokeColor=#FFFFFF;strokeOpacity=100;strokeWidth=0.8;rounded=1;arcSize=12;edgeStyle=orthogonalEdgeStyle;startArrow=none;endArrow=block;endFill=1;exitX=0.5;exitY=1.011;exitPerimeter=0;entryX=0.5;entryY=-0.011;entryPerimeter=0;lucidId=dF22rpCMpBrM;" edge="1" parent="1" source="Jtrj6787Ex4Qav3dFPR6-298" target="Jtrj6787Ex4Qav3dFPR6-325">
          <mxGeometry width="100" height="100" relative="1" as="geometry">
            <Array as="points" />
          </mxGeometry>
        </mxCell>
        <mxCell id="Jtrj6787Ex4Qav3dFPR6-325" value="icloud" style="html=1;overflow=block;blockSpacing=1;whiteSpace=wrap;fontSize=16.7;spacing=3.8;strokeColor=#FFFFFF;fillOpacity=100;rounded=1;absoluteArcSize=1;arcSize=9;fillColor=#000000;strokeWidth=NaN;lucidId=dF22PHsUtTqD;" vertex="1" parent="1">
          <mxGeometry x="2998" y="1180" width="120" height="68" as="geometry" />
        </mxCell>
        <mxCell id="Jtrj6787Ex4Qav3dFPR6-326" value="" style="html=1;jettySize=18;whiteSpace=wrap;fontSize=13;strokeColor=#FFFFFF;strokeOpacity=100;strokeWidth=0.8;rounded=1;arcSize=12;edgeStyle=orthogonalEdgeStyle;startArrow=none;endArrow=block;endFill=1;exitX=0.5;exitY=1.011;exitPerimeter=0;entryX=0.5;entryY=-0.011;entryPerimeter=0;lucidId=sF22hJnIv5oS;" edge="1" parent="1" source="Jtrj6787Ex4Qav3dFPR6-325" target="Jtrj6787Ex4Qav3dFPR6-327">
          <mxGeometry width="100" height="100" relative="1" as="geometry">
            <Array as="points" />
          </mxGeometry>
        </mxCell>
        <mxCell id="Jtrj6787Ex4Qav3dFPR6-327" value="acr3d" style="html=1;overflow=block;blockSpacing=1;whiteSpace=wrap;fontSize=16.7;spacing=3.8;strokeColor=#FFFFFF;fillOpacity=100;rounded=1;absoluteArcSize=1;arcSize=9;fillColor=#000000;strokeWidth=NaN;lucidId=sF22RnEibjXu;" vertex="1" parent="1">
          <mxGeometry x="2998" y="1308" width="120" height="68" as="geometry" />
        </mxCell>
        <mxCell id="Jtrj6787Ex4Qav3dFPR6-328" value="" style="html=1;jettySize=18;whiteSpace=wrap;fontSize=13;strokeColor=#FFFFFF;strokeOpacity=100;strokeWidth=0.8;rounded=1;arcSize=12;edgeStyle=orthogonalEdgeStyle;startArrow=none;endArrow=block;endFill=1;exitX=0.5;exitY=1.011;exitPerimeter=0;entryX=0.5;entryY=-0.011;entryPerimeter=0;lucidId=LF220zBVtbQQ;" edge="1" parent="1" source="Jtrj6787Ex4Qav3dFPR6-325" target="Jtrj6787Ex4Qav3dFPR6-329">
          <mxGeometry width="100" height="100" relative="1" as="geometry">
            <Array as="points" />
          </mxGeometry>
        </mxCell>
        <mxCell id="Jtrj6787Ex4Qav3dFPR6-329" value="new_ice_ condensate" style="html=1;overflow=block;blockSpacing=1;whiteSpace=wrap;fontSize=16.7;spacing=3.8;strokeColor=#FFFFFF;fillOpacity=100;rounded=1;absoluteArcSize=1;arcSize=9;fillColor=#000000;strokeWidth=NaN;lucidId=LF22nRgImozE;" vertex="1" parent="1">
          <mxGeometry x="3144" y="1308" width="120" height="68" as="geometry" />
        </mxCell>
        <mxCell id="Jtrj6787Ex4Qav3dFPR6-330" value="" style="html=1;jettySize=18;whiteSpace=wrap;fontSize=13;strokeColor=#FFFFFF;strokeOpacity=100;strokeWidth=0.8;rounded=1;arcSize=12;edgeStyle=orthogonalEdgeStyle;startArrow=none;endArrow=block;endFill=1;exitX=0.5;exitY=1.011;exitPerimeter=0;entryX=0.5;entryY=-0.011;entryPerimeter=0;lucidId=4G22lPKDZHCG;" edge="1" parent="1" source="Jtrj6787Ex4Qav3dFPR6-325" target="Jtrj6787Ex4Qav3dFPR6-331">
          <mxGeometry width="100" height="100" relative="1" as="geometry">
            <Array as="points" />
          </mxGeometry>
        </mxCell>
        <mxCell id="Jtrj6787Ex4Qav3dFPR6-331" value="ice_fraction" style="html=1;overflow=block;blockSpacing=1;whiteSpace=wrap;fontSize=16.7;spacing=3.8;strokeColor=#FFFFFF;fillOpacity=100;rounded=1;absoluteArcSize=1;arcSize=9;fillColor=#000000;strokeWidth=NaN;lucidId=4G22kMz6_8TR;" vertex="1" parent="1">
          <mxGeometry x="3289" y="1308" width="120" height="68" as="geometry" />
        </mxCell>
        <mxCell id="Jtrj6787Ex4Qav3dFPR6-332" value="" style="html=1;jettySize=18;whiteSpace=wrap;fontSize=13;strokeColor=#FFFFFF;strokeOpacity=100;strokeWidth=0.8;rounded=1;arcSize=12;edgeStyle=orthogonalEdgeStyle;startArrow=none;endArrow=block;endFill=1;exitX=0.5;exitY=1.011;exitPerimeter=0;entryX=0.5;entryY=-0.011;entryPerimeter=0;lucidId=tI22itv5VgnG;" edge="1" parent="1" source="Jtrj6787Ex4Qav3dFPR6-325" target="Jtrj6787Ex4Qav3dFPR6-333">
          <mxGeometry width="100" height="100" relative="1" as="geometry">
            <Array as="points" />
          </mxGeometry>
        </mxCell>
        <mxCell id="Jtrj6787Ex4Qav3dFPR6-333" value="subgrid_z_proc" style="html=1;overflow=block;blockSpacing=1;whiteSpace=wrap;fontSize=16.7;spacing=3.8;strokeColor=#FFFFFF;fillOpacity=100;rounded=1;absoluteArcSize=1;arcSize=9;fillColor=#000000;strokeWidth=NaN;lucidId=tI22UM.Lo3P.;" vertex="1" parent="1">
          <mxGeometry x="3435" y="1308" width="120" height="68" as="geometry" />
        </mxCell>
        <mxCell id="Jtrj6787Ex4Qav3dFPR6-334" value="" style="html=1;jettySize=18;whiteSpace=wrap;fontSize=13;strokeColor=#FFFFFF;strokeOpacity=100;strokeWidth=0.8;rounded=1;arcSize=12;edgeStyle=orthogonalEdgeStyle;startArrow=none;endArrow=block;endFill=1;exitX=0.5;exitY=1.011;exitPerimeter=0;entryX=0.5;entryY=-0.011;entryPerimeter=0;lucidId=bJ22.niRLWBp;" edge="1" parent="1" source="Jtrj6787Ex4Qav3dFPR6-325" target="Jtrj6787Ex4Qav3dFPR6-335">
          <mxGeometry width="100" height="100" relative="1" as="geometry">
            <Array as="points" />
          </mxGeometry>
        </mxCell>
        <mxCell id="Jtrj6787Ex4Qav3dFPR6-335" value="linear_prof" style="html=1;overflow=block;blockSpacing=1;whiteSpace=wrap;fontSize=16.7;spacing=3.8;strokeColor=#FFFFFF;fillOpacity=100;rounded=1;absoluteArcSize=1;arcSize=9;fillColor=#000000;strokeWidth=NaN;lucidId=bJ22_hSzBPh_;" vertex="1" parent="1">
          <mxGeometry x="3580" y="1308" width="120" height="68" as="geometry" />
        </mxCell>
        <mxCell id="Jtrj6787Ex4Qav3dFPR6-336" value="" style="html=1;jettySize=18;whiteSpace=wrap;fontSize=13;strokeColor=#FFFFFF;strokeOpacity=100;strokeWidth=0.8;rounded=1;arcSize=12;edgeStyle=orthogonalEdgeStyle;startArrow=none;endArrow=block;endFill=1;exitX=1.006;exitY=0.5;exitPerimeter=0;entryX=-0.006;entryY=0.5;entryPerimeter=0;lucidId=hK22pUhLuoKJ;" edge="1" parent="1" source="Jtrj6787Ex4Qav3dFPR6-329" target="Jtrj6787Ex4Qav3dFPR6-331">
          <mxGeometry width="100" height="100" relative="1" as="geometry">
            <Array as="points" />
          </mxGeometry>
        </mxCell>
        <mxCell id="Jtrj6787Ex4Qav3dFPR6-337" value="" style="html=1;jettySize=18;whiteSpace=wrap;fontSize=13;strokeColor=#FFFFFF;strokeOpacity=100;strokeWidth=0.8;rounded=1;arcSize=12;edgeStyle=orthogonalEdgeStyle;startArrow=none;endArrow=block;endFill=1;exitX=-0.006;exitY=0.5;exitPerimeter=0;entryX=1.006;entryY=0.5;entryPerimeter=0;lucidId=iK22wutU3APA;" edge="1" parent="1" source="Jtrj6787Ex4Qav3dFPR6-333" target="Jtrj6787Ex4Qav3dFPR6-331">
          <mxGeometry width="100" height="100" relative="1" as="geometry">
            <Array as="points" />
          </mxGeometry>
        </mxCell>
        <mxCell id="Jtrj6787Ex4Qav3dFPR6-338" value="" style="html=1;jettySize=18;whiteSpace=wrap;fontSize=13;strokeColor=#FFFFFF;strokeOpacity=100;strokeWidth=0.8;rounded=1;arcSize=12;edgeStyle=orthogonalEdgeStyle;startArrow=none;endArrow=block;endFill=1;exitX=0.5;exitY=1.011;exitPerimeter=0;entryX=0.5;entryY=-0.011;entryPerimeter=0;lucidId=hL22PYcf~sA0;" edge="1" parent="1" source="Jtrj6787Ex4Qav3dFPR6-333" target="Jtrj6787Ex4Qav3dFPR6-339">
          <mxGeometry width="100" height="100" relative="1" as="geometry">
            <Array as="points" />
          </mxGeometry>
        </mxCell>
        <mxCell id="Jtrj6787Ex4Qav3dFPR6-339" value="iqs2" style="html=1;overflow=block;blockSpacing=1;whiteSpace=wrap;fontSize=16.7;spacing=3.8;strokeColor=#FFFFFF;fillOpacity=100;rounded=1;absoluteArcSize=1;arcSize=9;fillColor=#000000;strokeWidth=NaN;lucidId=hL226M7.KeMS;" vertex="1" parent="1">
          <mxGeometry x="3435" y="1435" width="120" height="68" as="geometry" />
        </mxCell>
        <mxCell id="Jtrj6787Ex4Qav3dFPR6-340" value="" style="html=1;jettySize=18;whiteSpace=wrap;fontSize=13;strokeColor=#FFFFFF;strokeOpacity=100;strokeWidth=0.8;rounded=1;arcSize=12;edgeStyle=orthogonalEdgeStyle;startArrow=none;endArrow=block;endFill=1;exitX=0.5;exitY=1.011;exitPerimeter=0;entryX=0.5;entryY=-0.011;entryPerimeter=0;lucidId=jL22aUEndj1s;" edge="1" parent="1" source="Jtrj6787Ex4Qav3dFPR6-333" target="Jtrj6787Ex4Qav3dFPR6-341">
          <mxGeometry width="100" height="100" relative="1" as="geometry">
            <Array as="points" />
          </mxGeometry>
        </mxCell>
        <mxCell id="Jtrj6787Ex4Qav3dFPR6-341" value="wqs1" style="html=1;overflow=block;blockSpacing=1;whiteSpace=wrap;fontSize=16.7;spacing=3.8;strokeColor=#FFFFFF;fillOpacity=100;rounded=1;absoluteArcSize=1;arcSize=9;fillColor=#000000;strokeWidth=NaN;lucidId=jL22jrKmpVnI;" vertex="1" parent="1">
          <mxGeometry x="3580" y="1435" width="120" height="68" as="geometry" />
        </mxCell>
        <mxCell id="Jtrj6787Ex4Qav3dFPR6-342" value="" style="html=1;jettySize=18;whiteSpace=wrap;fontSize=13;strokeColor=#FFFFFF;strokeOpacity=100;strokeWidth=0.8;rounded=1;arcSize=12;edgeStyle=orthogonalEdgeStyle;startArrow=none;endArrow=block;endFill=1;exitX=0.5;exitY=1.013;exitPerimeter=0;entryX=0.5;entryY=-0.012;entryPerimeter=0;lucidId=4M22iOAPdPwH;" edge="1" parent="1" source="Jtrj6787Ex4Qav3dFPR6-307" target="Jtrj6787Ex4Qav3dFPR6-343">
          <mxGeometry width="100" height="100" relative="1" as="geometry">
            <Array as="points" />
          </mxGeometry>
        </mxCell>
        <mxCell id="Jtrj6787Ex4Qav3dFPR6-343" value="cs_profile" style="html=1;overflow=block;blockSpacing=1;whiteSpace=wrap;fontSize=16.7;spacing=3.8;strokeColor=#FFFFFF;fillOpacity=100;rounded=1;absoluteArcSize=1;arcSize=9;fillColor=#000000;strokeWidth=NaN;lucidId=4M22-_4ytpgN;" vertex="1" parent="1">
          <mxGeometry x="2271" y="1430" width="120" height="60" as="geometry" />
        </mxCell>
        <mxCell id="Jtrj6787Ex4Qav3dFPR6-344" value="" style="html=1;jettySize=18;whiteSpace=wrap;fontSize=13;strokeColor=#FFFFFF;strokeOpacity=100;strokeWidth=0.8;rounded=1;arcSize=12;edgeStyle=orthogonalEdgeStyle;startArrow=none;endArrow=block;endFill=1;exitX=0.5;exitY=1.013;exitPerimeter=0;entryX=0.5;entryY=-0.012;entryPerimeter=0;lucidId=jN22v.u6JQj6;" edge="1" parent="1" source="Jtrj6787Ex4Qav3dFPR6-343" target="Jtrj6787Ex4Qav3dFPR6-345">
          <mxGeometry width="100" height="100" relative="1" as="geometry">
            <Array as="points" />
          </mxGeometry>
        </mxCell>
        <mxCell id="Jtrj6787Ex4Qav3dFPR6-345" value="cs_limiters" style="html=1;overflow=block;blockSpacing=1;whiteSpace=wrap;fontSize=16.7;spacing=3.8;strokeColor=#FFFFFF;fillOpacity=100;rounded=1;absoluteArcSize=1;arcSize=9;fillColor=#000000;strokeWidth=NaN;lucidId=jN22P4dmeLTd;" vertex="1" parent="1">
          <mxGeometry x="2271" y="1550" width="120" height="60" as="geometry" />
        </mxCell>
        <mxCell id="Jtrj6787Ex4Qav3dFPR6-346" value="" style="html=1;jettySize=18;whiteSpace=wrap;fontSize=13;strokeColor=#FFFFFF;strokeOpacity=100;strokeWidth=0.8;rounded=1;arcSize=12;edgeStyle=orthogonalEdgeStyle;startArrow=none;endArrow=block;endFill=1;exitX=0.5;exitY=1.011;exitPerimeter=0;entryX=0.5;entryY=-0.011;entryPerimeter=0;lucidId=MP22k1~9Gn0k;" edge="1" parent="1" source="Jtrj6787Ex4Qav3dFPR6-325" target="Jtrj6787Ex4Qav3dFPR6-347">
          <mxGeometry width="100" height="100" relative="1" as="geometry">
            <Array as="points" />
          </mxGeometry>
        </mxCell>
        <mxCell id="Jtrj6787Ex4Qav3dFPR6-347" value="smlt" style="html=1;overflow=block;blockSpacing=1;whiteSpace=wrap;fontSize=16.7;spacing=3.8;strokeColor=#FFFFFF;fillOpacity=100;rounded=1;absoluteArcSize=1;arcSize=9;fillColor=#000000;strokeWidth=NaN;lucidId=MP22zr879XbR;" vertex="1" parent="1">
          <mxGeometry x="3726" y="1308" width="120" height="68" as="geometry" />
        </mxCell>
        <mxCell id="Jtrj6787Ex4Qav3dFPR6-348" value="" style="html=1;jettySize=18;whiteSpace=wrap;fontSize=13;strokeColor=#FFFFFF;strokeOpacity=100;strokeWidth=0.8;rounded=1;arcSize=12;edgeStyle=orthogonalEdgeStyle;startArrow=none;endArrow=block;endFill=1;exitX=0.5;exitY=1.011;exitPerimeter=0;entryX=0.5;entryY=-0.011;entryPerimeter=0;lucidId=bQ22wzzTIMwV;" edge="1" parent="1" source="Jtrj6787Ex4Qav3dFPR6-302" target="Jtrj6787Ex4Qav3dFPR6-349">
          <mxGeometry width="100" height="100" relative="1" as="geometry">
            <Array as="points">
              <mxPoint x="2476" y="1270" />
              <mxPoint x="2185" y="1270" />
            </Array>
          </mxGeometry>
        </mxCell>
        <mxCell id="Jtrj6787Ex4Qav3dFPR6-349" value="smlt" style="html=1;overflow=block;blockSpacing=1;whiteSpace=wrap;fontSize=16.7;spacing=3.8;strokeColor=#FFFFFF;fillOpacity=100;rounded=1;absoluteArcSize=1;arcSize=9;fillColor=#000000;strokeWidth=NaN;lucidId=bQ22my2mkSpe;" vertex="1" parent="1">
          <mxGeometry x="2125" y="1307" width="120" height="68" as="geometry" />
        </mxCell>
        <mxCell id="Jtrj6787Ex4Qav3dFPR6-350" value="" style="html=1;jettySize=18;whiteSpace=wrap;fontSize=13;strokeColor=#FFFFFF;strokeOpacity=100;strokeWidth=0.8;rounded=1;arcSize=12;edgeStyle=orthogonalEdgeStyle;startArrow=none;endArrow=block;endFill=1;exitX=0.5;exitY=1.011;exitPerimeter=0;entryX=0.5;entryY=-0.011;entryPerimeter=0;lucidId=6Q22chlc7WB_;" edge="1" parent="1" source="Jtrj6787Ex4Qav3dFPR6-325" target="Jtrj6787Ex4Qav3dFPR6-351">
          <mxGeometry width="100" height="100" relative="1" as="geometry">
            <Array as="points" />
          </mxGeometry>
        </mxCell>
        <mxCell id="Jtrj6787Ex4Qav3dFPR6-351" value="gmlt" style="html=1;overflow=block;blockSpacing=1;whiteSpace=wrap;fontSize=16.7;spacing=3.8;strokeColor=#FFFFFF;fillOpacity=100;rounded=1;absoluteArcSize=1;arcSize=9;fillColor=#000000;strokeWidth=NaN;lucidId=6Q227.gpLvvF;" vertex="1" parent="1">
          <mxGeometry x="3871" y="1308" width="120" height="68" as="geometry" />
        </mxCell>
        <mxCell id="Jtrj6787Ex4Qav3dFPR6-352" value="" style="html=1;jettySize=18;whiteSpace=wrap;fontSize=13;strokeColor=#FFFFFF;strokeOpacity=100;strokeWidth=0.8;rounded=1;arcSize=12;edgeStyle=orthogonalEdgeStyle;startArrow=none;endArrow=block;endFill=1;exitX=0.5;exitY=1.011;exitPerimeter=0;entryX=0.5;entryY=-0.011;entryPerimeter=0;lucidId=7R22ocYQQZZl;" edge="1" parent="1" source="Jtrj6787Ex4Qav3dFPR6-319" target="Jtrj6787Ex4Qav3dFPR6-353">
          <mxGeometry width="100" height="100" relative="1" as="geometry">
            <Array as="points" />
          </mxGeometry>
        </mxCell>
        <mxCell id="Jtrj6787Ex4Qav3dFPR6-353" value="wqs2" style="html=1;overflow=block;blockSpacing=1;whiteSpace=wrap;fontSize=16.7;spacing=3.8;strokeColor=#FFFFFF;fillOpacity=100;rounded=1;absoluteArcSize=1;arcSize=9;fillColor=#000000;strokeWidth=NaN;lucidId=7R22mBSrM6lH;" vertex="1" parent="1">
          <mxGeometry x="2853" y="1434" width="120" height="68" as="geometry" />
        </mxCell>
        <mxCell id="Jtrj6787Ex4Qav3dFPR6-354" value="" style="html=1;jettySize=18;whiteSpace=wrap;fontSize=13;strokeColor=#FFFFFF;strokeOpacity=100;strokeWidth=0.8;rounded=1;arcSize=12;edgeStyle=orthogonalEdgeStyle;startArrow=none;endArrow=block;endFill=1;exitX=0.5;exitY=1.011;exitPerimeter=0;entryX=0.5;entryY=-0.011;entryPerimeter=0;lucidId=-R22I5I8.kcs;" edge="1" parent="1" source="Jtrj6787Ex4Qav3dFPR6-353" target="Jtrj6787Ex4Qav3dFPR6-355">
          <mxGeometry width="100" height="100" relative="1" as="geometry">
            <Array as="points" />
          </mxGeometry>
        </mxCell>
        <mxCell id="Jtrj6787Ex4Qav3dFPR6-355" value="qsmith_init" style="html=1;overflow=block;blockSpacing=1;whiteSpace=wrap;fontSize=16.7;spacing=3.8;strokeColor=#FFFFFF;fillOpacity=100;rounded=1;absoluteArcSize=1;arcSize=9;fillColor=#000000;strokeWidth=NaN;lucidId=-R22lRYTXZ6L;" vertex="1" parent="1">
          <mxGeometry x="2853" y="1561" width="120" height="68" as="geometry" />
        </mxCell>
        <mxCell id="Jtrj6787Ex4Qav3dFPR6-356" value="" style="html=1;jettySize=18;whiteSpace=wrap;fontSize=13;strokeColor=#FFFFFF;strokeOpacity=100;strokeWidth=0.8;rounded=1;arcSize=12;edgeStyle=orthogonalEdgeStyle;startArrow=none;endArrow=block;endFill=1;exitX=0.5;exitY=1.011;exitPerimeter=0;entryX=0.5;entryY=-0.011;entryPerimeter=0;lucidId=xT22a8sNX87a;" edge="1" parent="1" source="Jtrj6787Ex4Qav3dFPR6-333" target="Jtrj6787Ex4Qav3dFPR6-353">
          <mxGeometry width="100" height="100" relative="1" as="geometry">
            <Array as="points" />
          </mxGeometry>
        </mxCell>
        <mxCell id="Jtrj6787Ex4Qav3dFPR6-357" value="" style="html=1;jettySize=18;whiteSpace=wrap;fontSize=13;strokeColor=#FFFFFF;strokeOpacity=100;strokeWidth=0.8;rounded=1;arcSize=12;edgeStyle=orthogonalEdgeStyle;startArrow=none;endArrow=block;endFill=1;exitX=0.5;exitY=1.011;exitPerimeter=0;entryX=0.5;entryY=-0.011;entryPerimeter=0;lucidId=0U220tWKS1tW;" edge="1" parent="1" source="Jtrj6787Ex4Qav3dFPR6-333" target="Jtrj6787Ex4Qav3dFPR6-358">
          <mxGeometry width="100" height="100" relative="1" as="geometry">
            <Array as="points" />
          </mxGeometry>
        </mxCell>
        <mxCell id="Jtrj6787Ex4Qav3dFPR6-358" value="iqs1" style="html=1;overflow=block;blockSpacing=1;whiteSpace=wrap;fontSize=16.7;spacing=3.8;strokeColor=#FFFFFF;fillOpacity=100;rounded=1;absoluteArcSize=1;arcSize=9;fillColor=#000000;strokeWidth=NaN;lucidId=0U226os_V.GP;" vertex="1" parent="1">
          <mxGeometry x="3289" y="1435" width="120" height="68" as="geometry" />
        </mxCell>
        <mxCell id="Jtrj6787Ex4Qav3dFPR6-359" value="" style="html=1;jettySize=18;whiteSpace=wrap;fontSize=13;strokeColor=#FFFFFF;strokeOpacity=100;strokeWidth=0.8;rounded=1;arcSize=12;edgeStyle=orthogonalEdgeStyle;startArrow=none;endArrow=block;endFill=1;exitX=0.5;exitY=1.011;exitPerimeter=0;entryX=0.5;entryY=-0.011;entryPerimeter=0;lucidId=TW22UvM54aeh;" edge="1" parent="1" source="Jtrj6787Ex4Qav3dFPR6-355" target="Jtrj6787Ex4Qav3dFPR6-360">
          <mxGeometry width="100" height="100" relative="1" as="geometry">
            <Array as="points" />
          </mxGeometry>
        </mxCell>
        <mxCell id="Jtrj6787Ex4Qav3dFPR6-360" value="qs_table2" style="html=1;overflow=block;blockSpacing=1;whiteSpace=wrap;fontSize=16.7;spacing=3.8;strokeColor=#FFFFFF;fillOpacity=100;rounded=1;absoluteArcSize=1;arcSize=9;fillColor=#000000;strokeWidth=NaN;lucidId=TW22B7ERn.fU;" vertex="1" parent="1">
          <mxGeometry x="2853" y="1689" width="120" height="68" as="geometry" />
        </mxCell>
        <mxCell id="Jtrj6787Ex4Qav3dFPR6-361" value="" style="html=1;jettySize=18;whiteSpace=wrap;fontSize=13;strokeColor=#FFFFFF;strokeOpacity=100;strokeWidth=0.8;rounded=1;arcSize=12;edgeStyle=orthogonalEdgeStyle;startArrow=none;endArrow=block;endFill=1;exitX=0.5;exitY=1.011;exitPerimeter=0;entryX=0.5;entryY=-0.011;entryPerimeter=0;lucidId=VW229IobO8XO;" edge="1" parent="1" source="Jtrj6787Ex4Qav3dFPR6-355" target="Jtrj6787Ex4Qav3dFPR6-362">
          <mxGeometry width="100" height="100" relative="1" as="geometry">
            <Array as="points" />
          </mxGeometry>
        </mxCell>
        <mxCell id="Jtrj6787Ex4Qav3dFPR6-362" value="qs_table3" style="html=1;overflow=block;blockSpacing=1;whiteSpace=wrap;fontSize=16.7;spacing=3.8;strokeColor=#FFFFFF;fillOpacity=100;rounded=1;absoluteArcSize=1;arcSize=9;fillColor=#000000;strokeWidth=NaN;lucidId=VW22JiuF1tEF;" vertex="1" parent="1">
          <mxGeometry x="2998" y="1689" width="120" height="68" as="geometry" />
        </mxCell>
        <mxCell id="Jtrj6787Ex4Qav3dFPR6-363" value="" style="html=1;jettySize=18;whiteSpace=wrap;fontSize=13;strokeColor=#FFFFFF;strokeOpacity=100;strokeWidth=0.8;rounded=1;arcSize=12;edgeStyle=orthogonalEdgeStyle;startArrow=none;endArrow=block;endFill=1;exitX=0.5;exitY=1.011;exitPerimeter=0;entryX=0.5;entryY=-0.011;entryPerimeter=0;lucidId=WW22P2ApXdPj;" edge="1" parent="1" source="Jtrj6787Ex4Qav3dFPR6-355" target="Jtrj6787Ex4Qav3dFPR6-364">
          <mxGeometry width="100" height="100" relative="1" as="geometry">
            <Array as="points" />
          </mxGeometry>
        </mxCell>
        <mxCell id="Jtrj6787Ex4Qav3dFPR6-364" value="qs_table" style="html=1;overflow=block;blockSpacing=1;whiteSpace=wrap;fontSize=16.7;spacing=3.8;strokeColor=#FFFFFF;fillOpacity=100;rounded=1;absoluteArcSize=1;arcSize=9;fillColor=#000000;strokeWidth=NaN;lucidId=WW22jB-xrn0u;" vertex="1" parent="1">
          <mxGeometry x="2707" y="1689" width="120" height="68" as="geometry" />
        </mxCell>
        <mxCell id="Jtrj6787Ex4Qav3dFPR6-365" value="" style="html=1;jettySize=18;whiteSpace=wrap;fontSize=13;strokeColor=#FFFFFF;strokeOpacity=100;strokeWidth=0.8;rounded=1;arcSize=12;edgeStyle=orthogonalEdgeStyle;startArrow=none;endArrow=block;endFill=1;exitX=0.5;exitY=1.011;exitPerimeter=0;entryX=0.5;entryY=-0.011;entryPerimeter=0;lucidId=WW22etAGPQFt;" edge="1" parent="1" source="Jtrj6787Ex4Qav3dFPR6-355" target="Jtrj6787Ex4Qav3dFPR6-366">
          <mxGeometry width="100" height="100" relative="1" as="geometry">
            <Array as="points" />
          </mxGeometry>
        </mxCell>
        <mxCell id="Jtrj6787Ex4Qav3dFPR6-366" value="qs_tablew" style="html=1;overflow=block;blockSpacing=1;whiteSpace=wrap;fontSize=16.7;spacing=3.8;strokeColor=#FFFFFF;fillOpacity=100;rounded=1;absoluteArcSize=1;arcSize=9;fillColor=#000000;strokeWidth=NaN;lucidId=WW22xKZF2F0k;" vertex="1" parent="1">
          <mxGeometry x="3144" y="1689" width="120" height="68" as="geometry" />
        </mxCell>
        <mxCell id="Jtrj6787Ex4Qav3dFPR6-367" value="" style="html=1;jettySize=18;whiteSpace=wrap;fontSize=13;strokeColor=#FFFFFF;strokeOpacity=100;strokeWidth=0.8;rounded=1;arcSize=12;edgeStyle=orthogonalEdgeStyle;startArrow=none;endArrow=block;endFill=1;exitX=0.5;exitY=1.011;exitPerimeter=0;entryX=0.5;entryY=-0.011;entryPerimeter=0;lucidId=hY22Az271rAd;" edge="1" parent="1" source="Jtrj6787Ex4Qav3dFPR6-364" target="Jtrj6787Ex4Qav3dFPR6-368">
          <mxGeometry width="100" height="100" relative="1" as="geometry">
            <Array as="points" />
          </mxGeometry>
        </mxCell>
        <mxCell id="Jtrj6787Ex4Qav3dFPR6-368" value="ice_fraction" style="html=1;overflow=block;blockSpacing=1;whiteSpace=wrap;fontSize=16.7;spacing=3.8;strokeColor=#FFFFFF;fillOpacity=100;rounded=1;absoluteArcSize=1;arcSize=9;fillColor=#000000;strokeWidth=NaN;lucidId=hY22RboD~jqd;" vertex="1" parent="1">
          <mxGeometry x="2707" y="1816" width="120" height="68" as="geometry" />
        </mxCell>
        <mxCell id="Jtrj6787Ex4Qav3dFPR6-369" value="REDISTRIBUTE_ CLOUDS" style="html=1;overflow=block;blockSpacing=1;whiteSpace=wrap;fontSize=16.7;spacing=3.8;strokeColor=#FFFFFF;fillOpacity=100;rounded=1;absoluteArcSize=1;arcSize=9;fillColor=#000000;strokeWidth=NaN;lucidId=Aj02~i0DirBL;" vertex="1" parent="1">
          <mxGeometry x="1658" y="813" width="120" height="68" as="geometry" />
        </mxCell>
        <mxCell id="Jtrj6787Ex4Qav3dFPR6-370" value="FIX_ NEGATIVE_ PRECIP" style="html=1;overflow=block;blockSpacing=1;whiteSpace=wrap;fontSize=16.7;spacing=3.8;strokeColor=#FFFFFF;fillOpacity=100;rounded=1;absoluteArcSize=1;arcSize=9;fillColor=#000000;strokeWidth=NaN;lucidId=Aj02~i0DirBL;" vertex="1" parent="1">
          <mxGeometry x="1804" y="813" width="120" height="68" as="geometry" />
        </mxCell>
        <mxCell id="Jtrj6787Ex4Qav3dFPR6-371" value="FIX_UP_ CLOUDS" style="html=1;overflow=block;blockSpacing=1;whiteSpace=wrap;fontSize=16.7;spacing=3.8;strokeColor=#FFFFFF;fillOpacity=100;rounded=1;absoluteArcSize=1;arcSize=9;fillColor=#000000;strokeWidth=NaN;lucidId=Aj02~i0DirBL;" vertex="1" parent="1">
          <mxGeometry x="790" y="813" width="120" height="68" as="geometry" />
        </mxCell>
        <mxCell id="Jtrj6787Ex4Qav3dFPR6-372" style="edgeStyle=orthogonalEdgeStyle;rounded=0;orthogonalLoop=1;jettySize=auto;html=1;exitX=0.5;exitY=1;exitDx=0;exitDy=0;entryX=0.5;entryY=0;entryDx=0;entryDy=0;strokeColor=#FFFFFF;" edge="1" parent="1" source="Jtrj6787Ex4Qav3dFPR6-373" target="Jtrj6787Ex4Qav3dFPR6-374">
          <mxGeometry relative="1" as="geometry" />
        </mxCell>
        <mxCell id="Jtrj6787Ex4Qav3dFPR6-373" value="RADCOUPLE" style="html=1;overflow=block;blockSpacing=1;whiteSpace=wrap;fontSize=16.7;spacing=3.8;strokeColor=#FFFFFF;fillOpacity=100;rounded=1;absoluteArcSize=1;arcSize=9;fillColor=#000000;strokeWidth=NaN;lucidId=Aj02~i0DirBL;" vertex="1" parent="1">
          <mxGeometry x="650" y="813" width="120" height="68" as="geometry" />
        </mxCell>
        <mxCell id="Jtrj6787Ex4Qav3dFPR6-374" value="LDRADIUS4" style="html=1;overflow=block;blockSpacing=1;whiteSpace=wrap;fontSize=16.7;spacing=3.8;strokeColor=#FFFFFF;fillOpacity=100;rounded=1;absoluteArcSize=1;arcSize=9;fillColor=#000000;strokeWidth=NaN;lucidId=Aj02~i0DirBL;" vertex="1" parent="1">
          <mxGeometry x="650" y="932" width="120" height="68" as="geometry" />
        </mxCell>
        <mxCell id="Jtrj6787Ex4Qav3dFPR6-375" style="edgeStyle=orthogonalEdgeStyle;rounded=1;orthogonalLoop=1;jettySize=auto;html=1;exitX=0.5;exitY=1;exitDx=0;exitDy=0;entryX=0;entryY=0.5;entryDx=0;entryDy=0;curved=0;strokeColor=#FFFFFF;" edge="1" parent="1" source="Jtrj6787Ex4Qav3dFPR6-376" target="Jtrj6787Ex4Qav3dFPR6-377">
          <mxGeometry relative="1" as="geometry" />
        </mxCell>
        <mxCell id="Jtrj6787Ex4Qav3dFPR6-376" value="cs_ interpolator" style="html=1;overflow=block;blockSpacing=1;whiteSpace=wrap;fontSize=16.7;spacing=3.8;strokeColor=#FFFFFF;fillOpacity=100;rounded=1;absoluteArcSize=1;arcSize=9;fillColor=#000000;strokeWidth=NaN;lucidId=Aj02~i0DirBL;" vertex="1" parent="1">
          <mxGeometry x="1949" y="813" width="120" height="68" as="geometry" />
        </mxCell>
        <mxCell id="Jtrj6787Ex4Qav3dFPR6-377" value="cs_prof" style="html=1;overflow=block;blockSpacing=1;whiteSpace=wrap;fontSize=16.7;spacing=3.8;strokeColor=#FFFFFF;fillOpacity=100;rounded=1;absoluteArcSize=1;arcSize=9;fillColor=#000000;strokeWidth=NaN;lucidId=Aj02~i0DirBL;" vertex="1" parent="1">
          <mxGeometry x="2100" y="877" width="120" height="68" as="geometry" />
        </mxCell>
      </root>
    </mxGraphModel>
  </diagram>
</mxfile>
